<svg width="25" height="24" viewBox="0 0 25 24" fill="none" xmlns="http://www.w3.org/2000/svg">
<path d="M20.9028 16.3359C20.2064 17.0323 19.0771 17.0323 18.3807 16.3359L15.3059 13.261C14.6094 12.5646 14.6094 11.4354 15.3059 10.7389L18.3807 7.66414C19.0771 6.96766 20.2064 6.96766 20.9028 7.66414L23.9777 10.7389C24.6741 11.4354 24.6741 12.5646 23.9777 13.261L20.9028 16.3359ZM6.61928 16.3359C5.92281 17.0323 4.7936 17.0323 4.09714 16.3359L1.02235 13.261C0.325884 12.5646 0.325882 11.4354 1.02235 10.7389L4.09714 7.66414C4.7936 6.96766 5.92281 6.96766 6.61928 7.66414L9.69407 10.7389C10.3905 11.4354 10.3905 12.5646 9.69407 13.261L6.61928 16.3359ZM13.7611 23.4776C13.0646 24.1741 11.9354 24.1741 11.2389 23.4776L8.16412 20.4028C7.46766 19.7064 7.46766 18.5771 8.16412 17.8807L11.2389 14.806C11.9354 14.1094 13.0646 14.1094 13.7611 14.806L16.8359 17.8807C17.5323 18.5771 17.5323 19.7064 16.8359 20.4028L13.7611 23.4776ZM13.7611 9.19407C13.0646 9.89054 11.9354 9.89055 11.2389 9.19407L8.16412 6.11928C7.46766 5.42281 7.46766 4.29362 8.16412 3.59714L11.2389 0.522352C11.9354 -0.174117 13.0646 -0.174118 13.7611 0.522351L16.8359 3.59714C17.5323 4.29362 17.5323 5.42281 16.8359 6.11928L13.7611 9.19407Z" fill="#595964"/>
</svg>
