<svg width="104" height="104" viewBox="0 0 104 104" fill="none" xmlns="http://www.w3.org/2000/svg">
<path d="M50.4693 4.63405C51.4494 4.22808 52.5506 4.22807 53.5307 4.63405L84.4104 17.4248C85.3905 17.8308 86.1692 18.6095 86.5752 19.5896L99.366 50.4693C99.7719 51.4494 99.7719 52.5506 99.366 53.5307L86.5752 84.4104C86.1692 85.3905 85.3905 86.1692 84.4104 86.5752L53.5307 99.366C52.5506 99.7719 51.4494 99.7719 50.4693 99.366L19.5896 86.5752C18.6095 86.1692 17.8308 85.3905 17.4248 84.4104L4.63405 53.5307C4.22808 52.5506 4.22807 51.4494 4.63405 50.4693L17.4248 19.5896C17.8308 18.6095 18.6095 17.8308 19.5896 17.4248L50.4693 4.63405Z" fill="#EAEAED"/>
<path d="M52 65.5C59.4558 65.5 65.5 59.4558 65.5 52C65.5 44.5442 59.4558 38.5 52 38.5C44.5442 38.5 38.5 44.5442 38.5 52C38.5 59.4558 44.5442 65.5 52 65.5Z" stroke="#494957" stroke-width="2" stroke-miterlimit="10"/>
<path d="M52 45.25V53.125" stroke="#494957" stroke-width="2" stroke-linecap="round" stroke-linejoin="round"/>
<path d="M52 59.875C52.932 59.875 53.6875 59.1195 53.6875 58.1875C53.6875 57.2555 52.932 56.5 52 56.5C51.068 56.5 50.3125 57.2555 50.3125 58.1875C50.3125 59.1195 51.068 59.875 52 59.875Z" fill="#494957"/>
</svg>
