<svg width="96" height="96" viewBox="0 0 96 96" fill="none" xmlns="http://www.w3.org/2000/svg">
<path d="M84.7125 38.55C83.2875 37.0875 81.825 35.55 81.2625 34.2375C80.7 32.925 80.7375 30.975 80.7 28.9875C80.6625 25.35 80.5875 21.1875 77.7 18.3C74.8125 15.4125 70.65 15.3375 67.0125 15.3C65.025 15.2625 63 15.225 61.7625 14.7375C60.525 14.25 58.9125 12.7125 57.45 11.2875C54.8625 8.8125 51.9 6 48 6C44.1 6 41.1375 8.8125 38.55 11.2875C37.0875 12.7125 35.55 14.175 34.2375 14.7375C32.925 15.3 30.975 15.2625 28.9875 15.3C25.35 15.3375 21.1875 15.4125 18.3 18.3C15.4125 21.1875 15.3375 25.35 15.3 28.9875C15.2625 30.975 15.225 33 14.7375 34.2375C14.25 35.475 12.7125 37.0875 11.2875 38.55C8.8125 41.1375 6 44.1 6 48C6 51.9 8.8125 54.8625 11.2875 57.45C12.7125 58.9125 14.175 60.45 14.7375 61.7625C15.3 63.075 15.2625 65.025 15.3 67.0125C15.3375 70.65 15.4125 74.8125 18.3 77.7C21.1875 80.5875 25.35 80.6625 28.9875 80.7C30.975 80.7375 33 80.775 34.2375 81.2625C35.475 81.75 37.0875 83.2875 38.55 84.7125C41.1375 87.1875 44.1 90 48 90C51.9 90 54.8625 87.1875 57.45 84.7125C58.9125 83.2875 60.45 81.825 61.7625 81.2625C63.075 80.7 65.025 80.7375 67.0125 80.7C70.65 80.6625 74.8125 80.5875 77.7 77.7C80.5875 74.8125 80.6625 70.65 80.7 67.0125C80.7375 65.025 80.775 63 81.2625 61.7625C81.75 60.525 83.2875 58.9125 84.7125 57.45C87.1875 54.8625 90 51.9 90 48C90 44.1 87.1875 41.1375 84.7125 38.55ZM66.5625 41.175L44.5875 62.175C44.0194 62.7094 43.2675 63.0048 42.4875 63C41.719 63.0029 40.9795 62.7071 40.425 62.175L29.4375 51.675C29.1327 51.4091 28.8849 51.0844 28.7089 50.7202C28.5328 50.3561 28.4322 49.9602 28.4131 49.5562C28.394 49.1522 28.4568 48.7485 28.5976 48.3694C28.7385 47.9903 28.9546 47.6436 29.2329 47.3501C29.5112 47.0567 29.8459 46.8225 30.217 46.6617C30.5881 46.5009 30.9879 46.4168 31.3923 46.4145C31.7968 46.4121 32.1975 46.4916 32.5704 46.648C32.9434 46.8045 33.2808 47.0348 33.5625 47.325L42.4875 55.8375L62.4375 36.825C63.0208 36.3161 63.7783 36.0523 64.5515 36.0889C65.3248 36.1255 66.054 36.4596 66.5866 37.0213C67.1193 37.583 67.4142 38.3289 67.4097 39.103C67.4052 39.8771 67.1017 40.6195 66.5625 41.175Z" fill="#96E0B2"/>
</svg>
