<svg width="96" height="96" viewBox="0 0 96 96" fill="none" xmlns="http://www.w3.org/2000/svg">
<path d="M48 9C40.2865 9 32.7463 11.2873 26.3328 15.5727C19.9193 19.8581 14.9205 25.949 11.9687 33.0753C9.0169 40.2017 8.24457 48.0433 9.74939 55.6085C11.2542 63.1738 14.9686 70.1229 20.4229 75.5772C25.8771 81.0314 32.8262 84.7458 40.3915 86.2506C47.9568 87.7554 55.7984 86.9831 62.9247 84.0313C70.051 81.0795 76.142 76.0808 80.4273 69.6672C84.7127 63.2537 87 55.7135 87 48C86.9802 37.6626 82.8649 27.7544 75.5553 20.4447C68.2457 13.1351 58.3374 9.01982 48 9ZM45 30C45 29.2044 45.3161 28.4413 45.8787 27.8787C46.4413 27.3161 47.2044 27 48 27C48.7957 27 49.5587 27.3161 50.1213 27.8787C50.6839 28.4413 51 29.2044 51 30V51C51 51.7957 50.6839 52.5587 50.1213 53.1213C49.5587 53.6839 48.7957 54 48 54C47.2044 54 46.4413 53.6839 45.8787 53.1213C45.3161 52.5587 45 51.7957 45 51V30ZM48 69C47.11 69 46.24 68.7361 45.5 68.2416C44.7599 67.7471 44.1832 67.0443 43.8426 66.2221C43.502 65.3998 43.4128 64.495 43.5865 63.6221C43.7601 62.7492 44.1887 61.9474 44.818 61.318C45.4474 60.6887 46.2492 60.2601 47.1221 60.0865C47.995 59.9128 48.8998 60.0019 49.7221 60.3425C50.5444 60.6831 51.2472 61.2599 51.7416 61.9999C52.2361 62.74 52.5 63.61 52.5 64.5C52.5 65.6935 52.0259 66.8381 51.182 67.682C50.3381 68.5259 49.1935 69 48 69Z" fill="#F34D4D"/>
</svg>
