<svg width="38" height="36" viewBox="0 0 38 36" fill="none" xmlns="http://www.w3.org/2000/svg">
<g clip-path="url(#clip0_1061_24244)">
<path d="M18.7874 36C28.7285 36 36.7874 27.9411 36.7874 18C36.7874 8.05888 28.7285 0 18.7874 0C8.84629 0 0.787415 8.05888 0.787415 18C0.787415 27.9411 8.84629 36 18.7874 36Z" fill="#CEE0F5"/>
<path d="M10.9525 13.2278C15.1021 9.16495 21.83 9.16495 25.9797 13.2278L26.4791 13.7168C26.6866 13.9199 26.6866 14.2493 26.4791 14.4524L24.7707 16.1251C24.6669 16.2267 24.4988 16.2267 24.395 16.1251L23.7078 15.4523C20.8128 12.6179 16.1193 12.6179 13.2244 15.4523L12.4884 16.1728C12.3846 16.2744 12.2165 16.2744 12.1127 16.1728L10.4043 14.5002C10.1968 14.297 10.1968 13.9676 10.4043 13.7645L10.9525 13.2278ZM29.5128 16.6871L31.0334 18.1757C31.2408 18.3789 31.2408 18.7083 31.0334 18.9114L24.1774 25.6241C23.9699 25.8272 23.6335 25.8272 23.426 25.6241L18.56 20.8599C18.5081 20.8091 18.424 20.8091 18.3722 20.8599L13.5063 25.6241C13.2988 25.8272 12.9624 25.8272 12.7549 25.6241L5.89878 18.9114C5.69129 18.7082 5.69129 18.3788 5.89878 18.1757L7.41927 16.687C7.62675 16.4839 7.96315 16.4839 8.17063 16.687L13.0367 21.4512C13.0885 21.5021 13.1726 21.5021 13.2245 21.4512L18.0903 16.687C18.2977 16.4839 18.6342 16.4839 18.8416 16.687L23.7077 21.4512C23.7596 21.5021 23.8437 21.5021 23.8956 21.4512L28.7615 16.6871C28.969 16.4839 29.3054 16.4839 29.5128 16.6871Z" fill="#3396FF"/>
</g>
<defs>
<clipPath id="clip0_1061_24244">
<rect width="36.5625" height="36" fill="white" transform="translate(0.5625)"/>
</clipPath>
</defs>
</svg>
