<svg width="16" height="16" viewBox="0 0 16 16" fill="none" xmlns="http://www.w3.org/2000/svg">
    <path
        d="M11.9999 5.33325H6.66659C5.93021 5.33325 5.33325 5.93021 5.33325 6.66659V11.9999C5.33325 12.7363 5.93021 13.3333 6.66659 13.3333H11.9999C12.7363 13.3333 13.3333 12.7363 13.3333 11.9999V6.66659C13.3333 5.93021 12.7363 5.33325 11.9999 5.33325Z"
        stroke="#494957" stroke-width="1.33" stroke-linecap="round" stroke-linejoin="round"/>
    <path
        d="M10.6667 5.33341V4.00008C10.6667 3.64646 10.5263 3.30732 10.2762 3.05727C10.0262 2.80722 9.68704 2.66675 9.33341 2.66675H4.00008C3.64646 2.66675 3.30732 2.80722 3.05727 3.05727C2.80722 3.30732 2.66675 3.64646 2.66675 4.00008V9.33341C2.66675 9.68704 2.80722 10.0262 3.05727 10.2762C3.30732 10.5263 3.64646 10.6667 4.00008 10.6667H5.33341"
        stroke="#494957" stroke-width="1.33333" stroke-linecap="round" stroke-linejoin="round"/>
</svg>
