<svg width="24" height="24" viewBox="0 0 24 24" fill="none" xmlns="http://www.w3.org/2000/svg">
    <g opacity="0.75">
        <path fill-rule="evenodd" clip-rule="evenodd"
              d="M16 18.0001C16 18.0001 14.8357 16.6423 14.4761 16.1868C14.1778 16.2761 13.8844 16.3445 13.5942 16.394C12.4434 16.6097 11.3887 16.5498 10.4897 16.382C10.153 16.317 9.83963 16.2375 9.54953 16.1506C9.18943 16.6068 8 18.0001 8 18.0001C5.35096 17.9162 5 15.7468 5 15.7468C5 11.8872 6.72601 7.25866 6.72601 7.25866C8.45203 5.96413 10.0941 6.0001 10.0941 6.0001L10.217 7.54965C11.4118 7.20403 12.5189 7.19577 13.7088 7.52632L13.9058 6.00018C13.9058 6.00018 15.5479 5.96413 17.2739 7.25874C17.2739 7.25874 19 11.8872 19 15.7468C19 15.7468 18.649 17.9162 16 18.0001ZM8.53601 13.3015C8.53601 12.5704 9.07532 11.9711 9.75852 11.9711C10.4417 11.9711 10.9932 12.5704 10.9811 13.3015C10.9811 14.0327 10.4418 14.632 9.75852 14.632C9.08729 14.632 8.53601 14.0327 8.53601 13.3015ZM12.9109 13.3015C12.9109 12.5704 13.4503 11.9711 14.1336 11.9711C14.8168 11.9711 15.3561 12.5704 15.3561 13.3015C15.3561 14.0327 14.8168 14.632 14.1336 14.632C13.4623 14.632 12.9109 14.0327 12.9109 13.3015Z"
              fill="currentColor"/>
    </g>
</svg>
