<svg width="45" height="42" viewBox="0 0 45 42" fill="none" xmlns="http://www.w3.org/2000/svg">
    <path
        d="M4.81623 0H20.4666C21.2538 0.000986856 22.0235 0.234541 22.6788 0.671052C23.3342 1.10756 23.8462 1.72763 24.1508 2.45361L27.5772 9.47562H40.1842C41.2589 9.47562 42.2898 9.90259 43.05 10.6628C43.8098 11.4227 44.2368 12.4536 44.2368 13.5282V37.9474C44.2348 39.0218 43.8072 40.0513 43.0477 40.8109C42.2882 41.5704 41.2586 41.9981 40.1842 42H4.81606C3.74171 41.998 2.71216 41.5704 1.95259 40.8109C1.19306 40.0513 0.765398 39.0218 0.763461 37.9474V4.05292C0.765435 2.97857 1.19307 1.94902 1.95259 1.18945C2.71212 0.429917 3.74171 0.00225678 4.81606 0.00031995L4.81623 0ZM22.1761 3.35256C22.0363 3.01441 21.7991 2.72527 21.4949 2.52198C21.1906 2.31869 20.8327 2.21047 20.4669 2.21047H4.8165C4.32801 2.21047 3.85929 2.40455 3.51386 2.74993C3.16843 3.09532 2.97439 3.56407 2.97439 4.05258V9.47552H25.1536L22.1761 3.35256Z"
        fill="currentColor"/>
</svg>
