<svg width="18" height="19" viewBox="0 0 18 19" fill="none" xmlns="http://www.w3.org/2000/svg">
    <path
        d="M10.8109 1.58795C9.77407 0.680728 8.22594 0.680726 7.18911 1.58795L1.18911 6.83795C0.592321 7.36014 0.25 8.11454 0.25 8.90753V16C0.25 17.5188 1.48122 18.75 3 18.75H5C6.51878 18.75 7.75 17.5188 7.75 16V14C7.75 13.3096 8.30964 12.75 9 12.75C9.69036 12.75 10.25 13.3096 10.25 14V16C10.25 17.5188 11.4812 18.75 13 18.75H15C16.5188 18.75 17.75 17.5188 17.75 16V8.90753C17.75 8.11454 17.4077 7.36014 16.8109 6.83795L10.8109 1.58795Z"
        fill="currentColor"/>
</svg>
