<svg width="37" height="36" viewBox="0 0 37 36" fill="none" xmlns="http://www.w3.org/2000/svg">
<rect x="0.125" width="36" height="36" rx="18" fill="#5959E4"/>
<path d="M27.2485 9L19.3378 14.625L20.8089 11.31L27.2485 9Z" fill="#E17726" stroke="#E17726" stroke-width="0.49375" stroke-linecap="round" stroke-linejoin="round"/>
<path d="M9.00146 9L16.8417 14.6775L15.4411 11.31L9.00146 9Z" fill="#E27625" stroke="#E27625" stroke-width="0.49375" stroke-linecap="round" stroke-linejoin="round"/>
<path d="M24.4003 22.0425L22.2955 25.1325L26.8024 26.325L28.0935 22.11L24.4003 22.0425Z" fill="#E27625" stroke="#E27625" stroke-width="0.49375" stroke-linecap="round" stroke-linejoin="round"/>
<path d="M8.16418 22.11L9.44742 26.325L13.9465 25.1325L11.8496 22.0425L8.16418 22.11Z" fill="#E27625" stroke="#E27625" stroke-width="0.49375" stroke-linecap="round" stroke-linejoin="round"/>
<path d="M13.7041 16.8225L12.4521 18.6375L16.9122 18.8325L16.7635 14.22L13.7041 16.8225Z" fill="#E27625" stroke="#E27625" stroke-width="0.49375" stroke-linecap="round" stroke-linejoin="round"/>
<path d="M22.5458 16.8225L19.4395 14.1675L19.3378 18.8325L23.7978 18.6375L22.5458 16.8225Z" fill="#E27625" stroke="#E27625" stroke-width="0.49375" stroke-linecap="round" stroke-linejoin="round"/>
<path d="M13.9466 25.1327L16.6461 23.8801L14.3222 22.1401L13.9466 25.1327Z" fill="#E27625" stroke="#E27625" stroke-width="0.49375" stroke-linecap="round" stroke-linejoin="round"/>
<path d="M19.6038 23.8801L22.2954 25.1327L21.9277 22.1401L19.6038 23.8801Z" fill="#E27625" stroke="#E27625" stroke-width="0.49375" stroke-linecap="round" stroke-linejoin="round"/>
<path d="M22.2955 25.1326L19.6038 23.8801L19.8229 25.5601L19.7994 26.2726L22.2955 25.1326Z" fill="#D5BFB2" stroke="#D5BFB2" stroke-width="0.49375" stroke-linecap="round" stroke-linejoin="round"/>
<path d="M13.9467 25.1326L16.4505 26.2726L16.4349 25.5601L16.6461 23.8801L13.9467 25.1326Z" fill="#D5BFB2" stroke="#D5BFB2" stroke-width="0.49375" stroke-linecap="round" stroke-linejoin="round"/>
<path d="M16.4975 21.0301L14.2597 20.4001L15.8403 19.7026L16.4975 21.0301Z" fill="#233447" stroke="#233447" stroke-width="0.49375" stroke-linecap="round" stroke-linejoin="round"/>
<path d="M19.7525 21.0301L20.4098 19.7026L21.9982 20.4001L19.7525 21.0301Z" fill="#233447" stroke="#233447" stroke-width="0.49375" stroke-linecap="round" stroke-linejoin="round"/>
<path d="M13.9467 25.1325L14.3379 22.0425L11.8497 22.11L13.9467 25.1325Z" fill="#CC6228" stroke="#CC6228" stroke-width="0.49375" stroke-linecap="round" stroke-linejoin="round"/>
<path d="M21.9122 22.0425L22.2956 25.1325L24.4004 22.11L21.9122 22.0425Z" fill="#CC6228" stroke="#CC6228" stroke-width="0.49375" stroke-linecap="round" stroke-linejoin="round"/>
<path d="M23.7979 18.6375L19.3379 18.8325L19.7526 21.03L20.4099 19.7025L21.9982 20.4L23.7979 18.6375Z" fill="#CC6228" stroke="#CC6228" stroke-width="0.49375" stroke-linecap="round" stroke-linejoin="round"/>
<path d="M14.2597 20.4L15.8403 19.7025L16.4976 21.03L16.9123 18.8325L12.4523 18.6375L14.2597 20.4Z" fill="#CC6228" stroke="#CC6228" stroke-width="0.49375" stroke-linecap="round" stroke-linejoin="round"/>
<path d="M12.4522 18.6375L14.3223 22.14L14.2597 20.4L12.4522 18.6375Z" fill="#E27525" stroke="#E27525" stroke-width="0.49375" stroke-linecap="round" stroke-linejoin="round"/>
<path d="M21.9982 20.4L21.9278 22.14L23.7979 18.6375L21.9982 20.4Z" fill="#E27525" stroke="#E27525" stroke-width="0.49375" stroke-linecap="round" stroke-linejoin="round"/>
<path d="M16.9123 18.8325L16.4976 21.03L17.0218 23.625L17.1392 20.205L16.9123 18.8325Z" fill="#E27525" stroke="#E27525" stroke-width="0.49375" stroke-linecap="round" stroke-linejoin="round"/>
<path d="M19.3379 18.8325L19.1188 20.1975L19.2283 23.625L19.7526 21.03L19.3379 18.8325Z" fill="#E27525" stroke="#E27525" stroke-width="0.49375" stroke-linecap="round" stroke-linejoin="round"/>
<path d="M19.7526 21.0299L19.2283 23.6249L19.6039 23.8799L21.9278 22.1399L21.9982 20.3999L19.7526 21.0299Z" fill="#F5841F" stroke="#F5841F" stroke-width="0.49375" stroke-linecap="round" stroke-linejoin="round"/>
<path d="M14.2597 20.3999L14.3223 22.1399L16.6462 23.8799L17.0218 23.6249L16.4975 21.0299L14.2597 20.3999Z" fill="#F5841F" stroke="#F5841F" stroke-width="0.49375" stroke-linecap="round" stroke-linejoin="round"/>
<path d="M19.7994 26.2726L19.8229 25.5601L19.6195 25.3951H16.6305L16.4349 25.5601L16.4505 26.2726L13.9467 25.1326L14.823 25.8226L16.5992 27.0001H19.6429L21.427 25.8226L22.2955 25.1326L19.7994 26.2726Z" fill="#C0AC9D" stroke="#C0AC9D" stroke-width="0.49375" stroke-linecap="round" stroke-linejoin="round"/>
<path d="M19.6038 23.88L19.2282 23.625H17.0217L16.6461 23.88L16.4349 25.56L16.6305 25.395H19.6195L19.8229 25.56L19.6038 23.88Z" fill="#161616" stroke="#161616" stroke-width="0.49375" stroke-linecap="round" stroke-linejoin="round"/>
<path d="M27.5849 14.9925L28.25 11.8875L27.2484 9L19.6038 14.4375L22.5459 16.8225L26.7007 17.985L27.6162 16.9575L27.2171 16.68L27.8509 16.125L27.3658 15.765L27.9996 15.3L27.5849 14.9925Z" fill="#763E1A" stroke="#763E1A" stroke-width="0.49375" stroke-linecap="round" stroke-linejoin="round"/>
<path d="M8 11.8875L8.67291 14.9925L8.24256 15.3L8.88418 15.765L8.39905 16.125L9.03284 16.68L8.63379 16.9575L9.54927 17.985L13.7041 16.8225L16.6462 14.4375L9.00155 9L8 11.8875Z" fill="#763E1A" stroke="#763E1A" stroke-width="0.49375" stroke-linecap="round" stroke-linejoin="round"/>
<path d="M26.7007 17.9848L22.5459 16.8223L23.7978 18.6373L21.9277 22.1398L24.4003 22.1098H28.0935L26.7007 17.9848Z" fill="#F5841F" stroke="#F5841F" stroke-width="0.49375" stroke-linecap="round" stroke-linejoin="round"/>
<path d="M13.704 16.8223L9.5492 17.9848L8.16425 22.1098H11.8496L14.3222 22.1398L12.4521 18.6373L13.704 16.8223Z" fill="#F5841F" stroke="#F5841F" stroke-width="0.49375" stroke-linecap="round" stroke-linejoin="round"/>
<path d="M19.3378 18.8326L19.6038 14.4376L20.8088 11.3101H15.4412L16.6461 14.4376L16.9122 18.8326L17.0139 20.2126L17.0217 23.6251H19.2283L19.2361 20.2126L19.3378 18.8326Z" fill="#F5841F" stroke="#F5841F" stroke-width="0.49375" stroke-linecap="round" stroke-linejoin="round"/>
</svg>
