<svg width="6" height="6" viewBox="0 0 6 6" fill="none" xmlns="http://www.w3.org/2000/svg">
    <path
        d="M1.54329 1.87502H4.4611C4.5291 1.87534 4.59596 1.88686 4.65584 1.90858C4.71571 1.9303 4.76679 1.96155 4.80461 1.99961C4.84242 2.03768 4.86584 2.08139 4.87281 2.12695C4.87977 2.1725 4.87008 2.21852 4.84458 2.26097L3.36484 3.98022C3.32879 4.02409 3.27595 4.06066 3.21181 4.08612C3.14767 4.11159 3.07457 4.12502 3.00011 4.12502C2.92565 4.12502 2.85255 4.11159 2.78841 4.08612C2.72427 4.06066 2.67143 4.02409 2.63538 3.98022L1.15564 2.26097C1.13062 2.21949 1.1207 2.17458 1.1267 2.12999C1.13271 2.08539 1.15447 2.04242 1.19017 2.00464C1.22586 1.96687 1.27446 1.93539 1.3319 1.91284C1.38935 1.89029 1.45397 1.87732 1.52037 1.87502"
        fill="currentColor"/>
</svg>
