<svg width="16" height="16" viewBox="0 0 16 16" fill="none" xmlns="http://www.w3.org/2000/svg">
    <path d="M5.5 10.5L3 13" stroke="currentColor" stroke-width="1.3" stroke-linecap="round" stroke-linejoin="round"/>
    <path
        d="M9.64377 1.8562L5.75002 5.74995C5.75002 5.74995 4.01877 4.8812 2.16252 6.3812C2.1079 6.4254 2.06321 6.48061 2.03136 6.54325C1.99951 6.60588 1.98122 6.67452 1.97769 6.7447C1.97415 6.81487 1.98544 6.88501 2.01083 6.95052C2.03621 7.01604 2.07512 7.07548 2.12502 7.12495L8.86252 13.8624C8.91296 13.9138 8.97387 13.9536 9.04111 13.9792C9.10835 14.0048 9.18032 14.0156 9.25211 14.0109C9.32391 14.0061 9.39383 13.986 9.45711 13.9517C9.52039 13.9175 9.57553 13.87 9.61877 13.8124C10.1438 13.1187 10.9688 11.6812 10.25 10.2499L14.1438 6.3562C14.191 6.30967 14.2285 6.25421 14.2541 6.19305C14.2797 6.13189 14.2929 6.06625 14.2929 5.99995C14.2929 5.93364 14.2797 5.868 14.2541 5.80684C14.2285 5.74568 14.191 5.69022 14.1438 5.6437L10.3563 1.8562C10.3097 1.80895 10.2543 1.77144 10.1931 1.74583C10.132 1.72022 10.0663 1.70703 10 1.70703C9.93372 1.70703 9.86807 1.72022 9.80691 1.74583C9.74575 1.77144 9.6903 1.80895 9.64377 1.8562Z"
        stroke="currentColor" stroke-width="1.3" stroke-linecap="round" stroke-linejoin="round"/>
</svg>
