<svg width="12" height="13" viewBox="0 0 12 13" fill="none" xmlns="http://www.w3.org/2000/svg">
    <path
        d="M10.0057 9.30503L9.4306 8.7313L9.14923 9.08891C9.93368 8.17639 10.4059 6.99171 10.4059 5.70297C10.4059 2.82933 8.07662 0.5 5.20297 0.5C2.32933 0.5 0 2.82933 0 5.70297C0 8.57662 2.32933 10.9059 5.20297 10.9059C6.49171 10.9059 7.67639 10.4337 8.58891 9.64923L8.19489 9.95653L8.80503 10.5057L10.8073 12.5L12 11.3073L10.0057 9.30503ZM5.20297 8.7313C3.20983 8.7313 2 7.69611 2 5.70297C2 3.70983 3.20983 2.68586 5.20297 2.68586C7.19611 2.68586 8.42306 3.70983 8.42306 5.70297C8.42306 7.69611 7.19611 8.7313 5.20297 8.7313Z"
        fill="currentColor"
    />
</svg>
