<svg width="7" height="6" viewBox="0 0 7 6" fill="none" xmlns="http://www.w3.org/2000/svg">
    <path
        d="M1.66666 0.333374H6.33333C6.44209 0.334137 6.54903 0.361502 6.64479 0.413083C6.74055 0.464664 6.82224 0.538892 6.88273 0.629295C6.94322 0.719697 6.98066 0.823526 6.99181 0.931726C7.00295 1.03993 6.98745 1.14921 6.94666 1.25004L4.57999 5.33337C4.52234 5.43757 4.43783 5.52443 4.33524 5.58491C4.23266 5.64539 4.11575 5.67729 3.99666 5.67729C3.87757 5.67729 3.76066 5.64539 3.65807 5.58491C3.55549 5.52443 3.47098 5.43757 3.41333 5.33337L1.04666 1.25004C1.00664 1.15152 0.99077 1.04485 1.00038 0.938938C1.00998 0.83303 1.04478 0.730957 1.10188 0.641239C1.15897 0.551522 1.2367 0.476765 1.32857 0.423208C1.42044 0.369651 1.52379 0.338849 1.62999 0.333374"
        fill="currentColor"/>
</svg>
