<svg width="15" height="16" viewBox="0 0 15 16" fill="none" xmlns="http://www.w3.org/2000/svg">
    <path
        d="M5 0C4.72386 0 4.5 0.223858 4.5 0.5C4.5 0.776142 4.72386 1 5 1H9C9.27614 1 9.5 0.776142 9.5 0.5C9.5 0.223858 9.27614 0 9 0H5ZM12.6563 1.92899C12.461 1.73373 12.1444 1.73373 11.9492 1.92899C11.7539 2.12426 11.7539 2.44084 11.9492 2.6361L13.3634 4.05031C13.5587 4.24558 13.8752 4.24558 14.0705 4.05031C14.2658 3.85505 14.2658 3.53847 14.0705 3.34321L12.6563 1.92899ZM7 4C6.72386 4 6.5 4.22386 6.5 4.5V9.5C6.5 9.77614 6.72386 10 7 10C7.27614 10 7.5 9.77614 7.5 9.5V4.5C7.5 4.22386 7.27614 4 7 4ZM7 16C10.866 16 14 12.866 14 9C14 5.13401 10.866 2 7 2C3.13401 2 0 5.13401 0 9C0 12.866 3.13401 16 7 16ZM7 15C3.68629 15 1 12.3137 1 9C1 5.68629 3.68629 3 7 3C10.3137 3 13 5.68629 13 9C13 12.3137 10.3137 15 7 15Z"
        fill="currentColor"/>
</svg>
