<svg width="24" height="24" viewBox="0 0 24 24" fill="none" xmlns="http://www.w3.org/2000/svg">
    <g opacity="0.75">
        <path
            d="M18.9784 6C19.0849 7.60586 18.805 8.20939 17.9799 9V9.68749C17.9799 14.2784 14.1338 18.25 9.55 18.25C7.93659 18.25 6.49768 18 5 17C7.3963 17 9.23437 15.7667 9.9 15.1C5.40694 13.6 4.00154 10 5.99846 6C6.49769 7.33333 8.40556 9.85 12 9.85V9.15C12 7.47045 13.3486 6 15.0256 6C15.8943 6 16.6755 6.37554 17.2161 6.97338C17.8577 6.87621 18.4961 6.53607 18.9784 6Z"
            fill="currentColor"/>
    </g>
</svg>
