<svg width="36" height="36" viewBox="0 0 36 36" fill="none" xmlns="http://www.w3.org/2000/svg">
    <path
        d="M12.375 22.5C16.4136 22.5 19.6875 19.2261 19.6875 15.1875C19.6875 11.1489 16.4136 7.875 12.375 7.875C8.33642 7.875 5.0625 11.1489 5.0625 15.1875C5.0625 19.2261 8.33642 22.5 12.375 22.5Z"
        stroke="#242424" stroke-width="3" stroke-miterlimit="10"/>
    <path
        d="M21.8535 8.14219C22.4999 7.96687 23.1666 7.87704 23.8363 7.875C25.7757 7.875 27.6357 8.64542 29.007 10.0168C30.3784 11.3881 31.1488 13.2481 31.1488 15.1875C31.1488 17.1269 30.3784 18.9869 29.007 20.3582C27.6357 21.7296 25.7757 22.5 23.8363 22.5"
        stroke="#242424" stroke-width="3" stroke-linecap="round" stroke-linejoin="round"/>
    <path
        d="M2.25 27.7594C3.3918 26.1346 4.90786 24.8084 6.67014 23.8929C8.43241 22.9774 10.3891 22.4995 12.375 22.4995C14.3609 22.4995 16.3176 22.9774 18.0799 23.8929C19.8421 24.8084 21.3582 26.1346 22.5 27.7594"
        stroke="#242424" stroke-width="3" stroke-linecap="round" stroke-linejoin="round"/>
    <path
        d="M23.8359 22.5C25.822 22.4988 27.7791 22.9761 29.5415 23.8916C31.304 24.8071 32.8199 26.1338 33.9609 27.7594"
        stroke="#242424" stroke-width="3" stroke-linecap="round" stroke-linejoin="round"/>
</svg>
