<svg width="16" height="16" viewBox="0 0 16 16" fill="none" xmlns="http://www.w3.org/2000/svg">
<path d="M4.11545 5H11.8963C12.0776 5.00086 12.2559 5.03158 12.4156 5.08949C12.5752 5.14741 12.7114 5.23075 12.8123 5.33225C12.9131 5.43375 12.9756 5.55033 12.9942 5.67181C13.0127 5.7933 12.9869 5.91599 12.9189 6.02921L8.97289 10.6139C8.87677 10.7309 8.73586 10.8284 8.56482 10.8963C8.39378 10.9642 8.19885 11 8.00029 11C7.80174 11 7.60681 10.9642 7.43577 10.8963C7.26473 10.8284 7.12382 10.7309 7.02769 10.6139L3.08171 6.02921C3.01499 5.91859 2.98853 5.79882 3.00454 5.67991C3.02056 5.561 3.07859 5.44639 3.17378 5.34566C3.26897 5.24493 3.39856 5.16099 3.55174 5.10086C3.70492 5.04073 3.87724 5.00615 4.05431 5" fill="#6C6C7D"/>
</svg>
