<svg width="12" height="12" viewBox="0 0 12 12" fill="none" xmlns="http://www.w3.org/2000/svg">
    <path d="M6 4.875V6.75" stroke="currentColor" stroke-linecap="round" stroke-linejoin="round"/>
    <path
        d="M5.35292 1.87512L1.22793 9.00012C1.16221 9.11394 1.12756 9.24303 1.12744 9.37446C1.12733 9.50589 1.16175 9.63504 1.22726 9.74898C1.29278 9.86291 1.38708 9.95763 1.50073 10.0236C1.61437 10.0897 1.74337 10.1247 1.8748 10.1251H10.1248C10.2562 10.1247 10.3852 10.0897 10.4989 10.0236C10.6125 9.95763 10.7068 9.86291 10.7723 9.74898C10.8379 9.63504 10.8723 9.50589 10.8722 9.37446C10.872 9.24303 10.8374 9.11394 10.7717 9.00012L6.64668 1.87512C6.58145 1.76115 6.48728 1.66644 6.37369 1.60056C6.26009 1.53469 6.13111 1.5 5.9998 1.5C5.86849 1.5 5.73951 1.53469 5.62591 1.60056C5.51232 1.66644 5.41815 1.76115 5.35292 1.87512V1.87512Z"
        stroke="currentColor" stroke-linecap="round" stroke-linejoin="round"/>
    <path
        d="M6 9C6.31066 9 6.5625 8.74816 6.5625 8.4375C6.5625 8.12684 6.31066 7.875 6 7.875C5.68934 7.875 5.4375 8.12684 5.4375 8.4375C5.4375 8.74816 5.68934 9 6 9Z"
        fill="currentColor"/>
</svg>
