<?xml version="1.0" encoding="utf-8"?><svg xmlns="http://www.w3.org/2000/svg" xmlns:xlink="http://www.w3.org/1999/xlink"><symbol fill="none" viewBox="0 0 4 8" id="angle-right" xmlns="http://www.w3.org/2000/svg"><path d="M.5 1l3 3-3 3" stroke="currentColor" stroke-linecap="round" stroke-linejoin="round"/></symbol><symbol fill="none" viewBox="0 0 6 4" id="arrow-down" xmlns="http://www.w3.org/2000/svg"><path d="M0 .5l3 3 3-3H0z" fill="currentColor"/></symbol><symbol fill="none" viewBox="0 0 17 16" id="arrow-right" xmlns="http://www.w3.org/2000/svg"><path d="M3 8h11" stroke="currentColor" stroke-width="1.333" stroke-linecap="round" stroke-linejoin="round"/><path d="M9.5 3.5L14 8l-4.5 4.5" stroke="currentColor" stroke-width="1.33" stroke-linecap="round" stroke-linejoin="round"/></symbol><symbol fill="none" viewBox="0 0 16 9" id="chevron-down" xmlns="http://www.w3.org/2000/svg"><path fill-rule="evenodd" clip-rule="evenodd" d="M.47.47a.75.75 0 011.06 0L8 6.94 14.47.47a.75.75 0 111.06 1.06l-7 7a.75.75 0 01-1.06 0l-7-7a.75.75 0 010-1.06z" fill="currentColor"/></symbol><symbol fill="none" viewBox="0 0 38 36" id="connect-wallet" xmlns="http://www.w3.org/2000/svg"><g clip-path="url(#eclip0_1061_24244)"><path d="M18.787 36c9.942 0 18-8.059 18-18s-8.058-18-18-18c-9.94 0-18 8.059-18 18s8.06 18 18 18z" fill="#CEE0F5"/><path d="M10.953 13.228c4.15-4.063 10.877-4.063 15.027 0l.5.489a.512.512 0 010 .735l-1.71 1.673a.27.27 0 01-.375 0l-.687-.673c-2.895-2.834-7.589-2.834-10.484 0l-.736.72a.27.27 0 01-.375 0L10.404 14.5a.513.513 0 010-.736l.549-.536zm18.56 3.46l1.52 1.488a.513.513 0 010 .735l-6.856 6.713a.54.54 0 01-.751 0L18.56 20.86a.135.135 0 00-.188 0l-4.866 4.764a.54.54 0 01-.751 0l-6.856-6.713a.513.513 0 010-.735l1.52-1.489a.54.54 0 01.752 0l4.866 4.764c.051.051.136.051.188 0l4.865-4.764a.54.54 0 01.752 0l4.866 4.764c.052.051.136.051.188 0l4.866-4.764a.54.54 0 01.75 0z" fill="#3396FF"/></g><defs><clipPath id="eclip0_1061_24244"><path fill="#fff" transform="translate(.563)" d="M0 0h36.563v36H0z"/></clipPath></defs></symbol><symbol fill="none" viewBox="0 0 16 16" id="cross" xmlns="http://www.w3.org/2000/svg"><path d="M.293.292a1 1 0 011.414 0L8 6.585 14.293.292a1 1 0 111.414 1.414L9.414 8l6.293 6.293a1 1 0 01-1.414 1.414L8 9.413l-6.293 6.293a1 1 0 01-1.414-1.414L6.586 8 .293 1.706a1 1 0 010-1.414z" fill="currentColor"/></symbol><symbol fill="none" viewBox="0 0 45 42" id="drag" xmlns="http://www.w3.org/2000/svg"><path d="M4.816 0h15.65a4 4 0 013.685 2.454l3.426 7.022h12.607a4.053 4.053 0 014.053 4.052v24.42A4.06 4.06 0 0140.184 42H4.816a4.06 4.06 0 01-4.053-4.053V4.053A4.06 4.06 0 014.816 0zm17.36 3.353a1.849 1.849 0 00-1.71-1.143H4.817a1.843 1.843 0 00-1.842 1.843v5.423h22.18l-2.978-6.123z" fill="currentColor"/></symbol><symbol fill="none" viewBox="0 0 18 19" id="home" xmlns="http://www.w3.org/2000/svg"><path d="M10.81 1.588a2.75 2.75 0 00-3.62 0l-6 5.25a2.75 2.75 0 00-.94 2.07V16A2.75 2.75 0 003 18.75h2A2.75 2.75 0 007.75 16v-2a1.25 1.25 0 112.5 0v2A2.75 2.75 0 0013 18.75h2A2.75 2.75 0 0017.75 16V8.908a2.75 2.75 0 00-.94-2.07l-6-5.25z" fill="currentColor"/></symbol><symbol fill="none" viewBox="0 0 36 36" id="ledger" xmlns="http://www.w3.org/2000/svg"><rect width="36" height="36" rx="18" fill="#CEE0F5"/><path d="M26 10.5h3.75v3.75M10 25.5H6.25v-3.75M29.75 21.75v3.75H26M6.25 14.25V10.5H10" stroke="#283B50" stroke-linecap="round" stroke-linejoin="round"/><path d="M21 23h-5V13" stroke="#283B50" stroke-width="2" stroke-linecap="round" stroke-linejoin="round"/></symbol><symbol fill="none" viewBox="0 0 37 36" id="metamask" xmlns="http://www.w3.org/2000/svg"><rect x=".125" width="36" height="36" rx="18" fill="#5959E4"/><path d="M27.248 9l-7.91 5.625 1.47-3.315L27.249 9z" fill="#E17726" stroke="#E17726" stroke-width=".494" stroke-linecap="round" stroke-linejoin="round"/><path d="M9.001 9l7.84 5.678-1.4-3.368L9.001 9zM24.4 22.043l-2.104 3.09 4.506 1.192 1.291-4.215-3.693-.067zM8.164 22.11l1.283 4.215 4.5-1.192-2.097-3.09-3.686.067z" fill="#E27625" stroke="#E27625" stroke-width=".494" stroke-linecap="round" stroke-linejoin="round"/><path d="M13.704 16.823l-1.252 1.814 4.46.195-.148-4.612-3.06 2.603zM22.546 16.823l-3.107-2.655-.101 4.665 4.46-.195-1.252-1.816zM13.947 25.133l2.7-1.253-2.325-1.74-.375 2.993zM19.604 23.88l2.691 1.253-.367-2.993-2.324 1.74z" fill="#E27625" stroke="#E27625" stroke-width=".494" stroke-linecap="round" stroke-linejoin="round"/><path d="M22.296 25.133l-2.692-1.253.219 1.68-.024.713 2.497-1.14zM13.947 25.133l2.504 1.14-.016-.713.211-1.68-2.7 1.253z" fill="#D5BFB2" stroke="#D5BFB2" stroke-width=".494" stroke-linecap="round" stroke-linejoin="round"/><path d="M16.497 21.03l-2.237-.63 1.58-.697.657 1.327zM19.753 21.03l.657-1.327 1.588.697-2.245.63z" fill="#233447" stroke="#233447" stroke-width=".494" stroke-linecap="round" stroke-linejoin="round"/><path d="M13.947 25.133l.39-3.09-2.487.067 2.097 3.023zM21.912 22.043l.384 3.09L24.4 22.11l-2.488-.067zM23.798 18.637l-4.46.195.415 2.198.657-1.328 1.588.698 1.8-1.762zM14.26 20.4l1.58-.697.658 1.327.414-2.198-4.46-.195L14.26 20.4z" fill="#CC6228" stroke="#CC6228" stroke-width=".494" stroke-linecap="round" stroke-linejoin="round"/><path d="M12.452 18.637l1.87 3.503-.062-1.74-1.808-1.762zM21.998 20.4l-.07 1.74 1.87-3.503-1.8 1.763zM16.912 18.832l-.414 2.198.524 2.595.117-3.42-.227-1.372zM19.338 18.832l-.22 1.366.11 3.427.525-2.595-.415-2.198z" fill="#E27525" stroke="#E27525" stroke-width=".494" stroke-linecap="round" stroke-linejoin="round"/><path d="M19.753 21.03l-.525 2.595.376.255 2.324-1.74.07-1.74-2.245.63zM14.26 20.4l.062 1.74 2.324 1.74.376-.255-.524-2.595-2.238-.63z" fill="#F5841F" stroke="#F5841F" stroke-width=".494" stroke-linecap="round" stroke-linejoin="round"/><path d="M19.8 26.273l.023-.713-.204-.165h-2.988l-.196.165.016.713-2.504-1.14.876.69L16.599 27h3.044l1.784-1.177.869-.69-2.497 1.14z" fill="#C0AC9D" stroke="#C0AC9D" stroke-width=".494" stroke-linecap="round" stroke-linejoin="round"/><path d="M19.604 23.88l-.376-.255h-2.206l-.376.255-.211 1.68.196-.165h2.988l.204.165-.22-1.68z" fill="#161616" stroke="#161616" stroke-width=".494" stroke-linecap="round" stroke-linejoin="round"/><path d="M27.585 14.992l.665-3.105L27.248 9l-7.644 5.438 2.942 2.385 4.155 1.162.915-1.027-.399-.278.634-.555-.485-.36L28 15.3l-.415-.308zM8 11.887l.673 3.105-.43.308.641.465-.485.36.634.555-.4.277.916 1.028 4.155-1.162 2.942-2.386L9.002 9 8 11.887z" fill="#763E1A" stroke="#763E1A" stroke-width=".494" stroke-linecap="round" stroke-linejoin="round"/><path d="M26.7 17.985l-4.154-1.163 1.252 1.815-1.87 3.503 2.472-.03h3.694L26.7 17.985zM13.704 16.822l-4.155 1.163-1.385 4.125h3.686l2.472.03-1.87-3.503 1.252-1.815zM19.338 18.833l.266-4.395 1.205-3.128H15.44l1.205 3.128.266 4.395.102 1.38.008 3.412h2.206l.008-3.412.102-1.38z" fill="#F5841F" stroke="#F5841F" stroke-width=".494" stroke-linecap="round" stroke-linejoin="round"/></symbol><symbol fill="none" viewBox="0 0 18 18" id="plus" xmlns="http://www.w3.org/2000/svg"><path fill-rule="evenodd" clip-rule="evenodd" d="M9 .25a.75.75 0 01.75.75v7.25H17a.75.75 0 010 1.5H9.75V17a.75.75 0 01-1.5 0V9.75H1a.75.75 0 010-1.5h7.25V1A.75.75 0 019 .25z" fill="currentColor"/></symbol><symbol fill="none" viewBox="0 0 24 24" id="question" xmlns="http://www.w3.org/2000/svg"><path d="M12 21a9 9 0 100-18 9 9 0 000 18z" stroke="currentColor" stroke-linecap="round" stroke-linejoin="round"/><path d="M12 18a1.5 1.5 0 100-3 1.5 1.5 0 000 3z" fill="currentColor"/><path d="M12 12.75a2.625 2.625 0 10-2.625-2.625" stroke="currentColor" stroke-linecap="round" stroke-linejoin="round"/></symbol><symbol fill="none" viewBox="0 0 6 6" id="required" xmlns="http://www.w3.org/2000/svg"><path d="M2.186 3.354L0 2.707l.323-1.073 2.199.805L2.46 0h1.118l-.075 2.439 2.162-.78L6 2.744l-2.236.646 1.441 1.94-.907.67-1.354-2.061-1.242 2.012-.907-.646 1.391-1.951z" fill="currentColor"/></symbol><symbol fill="none" viewBox="0 0 12 13" id="search" xmlns="http://www.w3.org/2000/svg"><path d="M10.006 9.305l-.575-.574-.282.358a5.18 5.18 0 001.257-3.386 5.203 5.203 0 10-5.203 5.203 5.18 5.18 0 003.386-1.257l-.394.308.61.549 2.002 1.994L12 11.307l-1.994-2.002zm-4.803-.574C3.21 8.731 2 7.696 2 5.703s1.21-3.017 3.203-3.017c1.993 0 3.22 1.024 3.22 3.017 0 1.993-1.227 3.028-3.22 3.028z" fill="currentColor"/></symbol><symbol fill="none" viewBox="0 0 15 16" id="timer" xmlns="http://www.w3.org/2000/svg"><path d="M5 0a.5.5 0 000 1h4a.5.5 0 000-1H5zm7.656 1.929a.5.5 0 10-.707.707l1.414 1.414a.5.5 0 10.707-.707L12.656 1.93zM7 4a.5.5 0 00-.5.5v5a.5.5 0 001 0v-5A.5.5 0 007 4zm0 12A7 7 0 107 2a7 7 0 000 14zm0-1A6 6 0 117 3a6 6 0 010 12z" fill="currentColor"/></symbol><symbol fill="none" viewBox="0 0 37 36" id="trust-wallet" xmlns="http://www.w3.org/2000/svg"><g clip-path="url(#pclip0_1061_24243)"><path d="M18.225 36c9.941 0 18-8.059 18-18s-8.059-18-18-18-18 8.059-18 18 8.059 18 18 18z" fill="#CEE0F5"/><path d="M18.494 8c3.438 2.82 7.38 2.646 8.506 2.646-.246 16.037-2.123 12.857-8.506 17.354-6.382-4.497-8.248-1.317-8.494-17.354 1.115 0 5.057.174 8.494-2.646z" stroke="#3375BB" stroke-width="2" stroke-miterlimit="10" stroke-linecap="round" stroke-linejoin="round"/></g><defs><clipPath id="pclip0_1061_24243"><path fill="#fff" d="M0 0h36.563v36H0z"/></clipPath></defs></symbol><symbol fill="none" viewBox="0 0 20 20" id="upload" xmlns="http://www.w3.org/2000/svg"><path d="M3.333 14.167v1.667A1.667 1.667 0 005 17.5h10a1.667 1.667 0 001.667-1.666v-1.667M5.833 7.5L10 3.333 14.167 7.5M10 3.333v10" stroke="currentColor" stroke-linecap="round" stroke-linejoin="round"/></symbol><symbol fill="none" viewBox="0 0 24 24" id="wallet" xmlns="http://www.w3.org/2000/svg"><path d="M3.75 6v12a1.5 1.5 0 001.5 1.5h15a.75.75 0 00.75-.75V8.25a.75.75 0 00-.75-.75h-15A1.5 1.5 0 013.75 6zm0 0a1.5 1.5 0 011.5-1.5H18" stroke="currentColor" stroke-width="1.5" stroke-linecap="round" stroke-linejoin="round"/><path d="M16.875 14.625a1.125 1.125 0 100-2.25 1.125 1.125 0 000 2.25z" fill="currentColor"/></symbol><symbol fill="none" viewBox="0 0 12 12" id="warning" xmlns="http://www.w3.org/2000/svg"><path d="M6 4.875V6.75M5.353 1.875L1.228 9a.75.75 0 00.647 1.125h8.25A.749.749 0 0010.772 9L6.647 1.875a.745.745 0 00-1.294 0v0z" stroke="currentColor" stroke-linecap="round" stroke-linejoin="round"/><path d="M6 9a.563.563 0 100-1.125A.563.563 0 006 9z" fill="currentColor"/></symbol><symbol fill="none" viewBox="0 0 12 12" id="warning-circle" xmlns="http://www.w3.org/2000/svg"><path d="M6 10.5a4.5 4.5 0 100-9 4.5 4.5 0 000 9z" stroke="currentColor" stroke-miterlimit="10"/><path d="M6 3.75v2.625" stroke="currentColor" stroke-linecap="round" stroke-linejoin="round"/><path d="M6 8.625A.563.563 0 106 7.5a.563.563 0 000 1.125z" fill="currentColor"/></symbol></svg>