<?xml version="1.0" encoding="utf-8"?><svg xmlns="http://www.w3.org/2000/svg" xmlns:xlink="http://www.w3.org/1999/xlink"><symbol fill="none" viewBox="0 0 4 8" id="angle-right" xmlns="http://www.w3.org/2000/svg"><path d="M.5 1l3 3-3 3" stroke="currentColor" stroke-linecap="round" stroke-linejoin="round"/></symbol><symbol fill="none" viewBox="0 0 6 4" id="arrow-down" xmlns="http://www.w3.org/2000/svg"><path d="M0 .5l3 3 3-3H0z" fill="currentColor"/></symbol><symbol fill="none" viewBox="0 0 17 16" id="arrow-right" xmlns="http://www.w3.org/2000/svg"><path d="M3 8h11" stroke="currentColor" stroke-width="1.333" stroke-linecap="round" stroke-linejoin="round"/><path d="M9.5 3.5L14 8l-4.5 4.5" stroke="currentColor" stroke-width="1.33" stroke-linecap="round" stroke-linejoin="round"/></symbol><symbol fill="none" viewBox="0 0 16 9" id="chevron-down" xmlns="http://www.w3.org/2000/svg"><path fill-rule="evenodd" clip-rule="evenodd" d="M.47.47a.75.75 0 011.06 0L8 6.94 14.47.47a.75.75 0 111.06 1.06l-7 7a.75.75 0 01-1.06 0l-7-7a.75.75 0 010-1.06z" fill="currentColor"/></symbol><symbol fill="none" viewBox="0 0 45 42" id="drag" xmlns="http://www.w3.org/2000/svg"><path d="M4.816 0h15.65a4 4 0 013.685 2.454l3.426 7.022h12.607a4.053 4.053 0 014.053 4.052v24.42A4.06 4.06 0 0140.184 42H4.816a4.06 4.06 0 01-4.053-4.053V4.053A4.06 4.06 0 014.816 0zm17.36 3.353a1.849 1.849 0 00-1.71-1.143H4.817a1.843 1.843 0 00-1.842 1.843v5.423h22.18l-2.978-6.123z" fill="currentColor"/></symbol><symbol fill="none" viewBox="0 0 18 19" id="home" xmlns="http://www.w3.org/2000/svg"><path d="M10.81 1.588a2.75 2.75 0 00-3.62 0l-6 5.25a2.75 2.75 0 00-.94 2.07V16A2.75 2.75 0 003 18.75h2A2.75 2.75 0 007.75 16v-2a1.25 1.25 0 112.5 0v2A2.75 2.75 0 0013 18.75h2A2.75 2.75 0 0017.75 16V8.908a2.75 2.75 0 00-.94-2.07l-6-5.25z" fill="currentColor"/></symbol><symbol fill="none" viewBox="0 0 18 18" id="plus" xmlns="http://www.w3.org/2000/svg"><path fill-rule="evenodd" clip-rule="evenodd" d="M9 .25a.75.75 0 01.75.75v7.25H17a.75.75 0 010 1.5H9.75V17a.75.75 0 01-1.5 0V9.75H1a.75.75 0 010-1.5h7.25V1A.75.75 0 019 .25z" fill="currentColor"/></symbol><symbol fill="none" viewBox="0 0 24 24" id="question" xmlns="http://www.w3.org/2000/svg"><path d="M12 21a9 9 0 100-18 9 9 0 000 18z" stroke="currentColor" stroke-linecap="round" stroke-linejoin="round"/><path d="M12 18a1.5 1.5 0 100-3 1.5 1.5 0 000 3z" fill="currentColor"/><path d="M12 12.75a2.625 2.625 0 10-2.625-2.625" stroke="currentColor" stroke-linecap="round" stroke-linejoin="round"/></symbol><symbol fill="none" viewBox="0 0 6 6" id="required" xmlns="http://www.w3.org/2000/svg"><path d="M2.186 3.354L0 2.707l.323-1.073 2.199.805L2.46 0h1.118l-.075 2.439 2.162-.78L6 2.744l-2.236.646 1.441 1.94-.907.67-1.354-2.061-1.242 2.012-.907-.646 1.391-1.951z" fill="currentColor"/></symbol><symbol fill="none" viewBox="0 0 12 13" id="search" xmlns="http://www.w3.org/2000/svg"><path d="M10.006 9.305l-.575-.574-.282.358a5.18 5.18 0 001.257-3.386 5.203 5.203 0 10-5.203 5.203 5.18 5.18 0 003.386-1.257l-.394.308.61.549 2.002 1.994L12 11.307l-1.994-2.002zm-4.803-.574C3.21 8.731 2 7.696 2 5.703s1.21-3.017 3.203-3.017c1.993 0 3.22 1.024 3.22 3.017 0 1.993-1.227 3.028-3.22 3.028z" fill="currentColor"/></symbol><symbol fill="none" viewBox="0 0 15 16" id="timer" xmlns="http://www.w3.org/2000/svg"><path d="M5 0a.5.5 0 000 1h4a.5.5 0 000-1H5zm7.656 1.929a.5.5 0 10-.707.707l1.414 1.414a.5.5 0 10.707-.707L12.656 1.93zM7 4a.5.5 0 00-.5.5v5a.5.5 0 001 0v-5A.5.5 0 007 4zm0 12A7 7 0 107 2a7 7 0 000 14zm0-1A6 6 0 117 3a6 6 0 010 12z" fill="currentColor"/></symbol><symbol fill="none" viewBox="0 0 20 20" id="upload" xmlns="http://www.w3.org/2000/svg"><path d="M3.333 14.167v1.667A1.667 1.667 0 005 17.5h10a1.667 1.667 0 001.667-1.666v-1.667M5.833 7.5L10 3.333 14.167 7.5M10 3.333v10" stroke="currentColor" stroke-linecap="round" stroke-linejoin="round"/></symbol><symbol fill="none" viewBox="0 0 24 24" id="wallet" xmlns="http://www.w3.org/2000/svg"><path d="M3.75 6v12a1.5 1.5 0 001.5 1.5h15a.75.75 0 00.75-.75V8.25a.75.75 0 00-.75-.75h-15A1.5 1.5 0 013.75 6zm0 0a1.5 1.5 0 011.5-1.5H18" stroke="currentColor" stroke-width="1.5" stroke-linecap="round" stroke-linejoin="round"/><path d="M16.875 14.625a1.125 1.125 0 100-2.25 1.125 1.125 0 000 2.25z" fill="currentColor"/></symbol><symbol fill="none" viewBox="0 0 12 12" id="warning" xmlns="http://www.w3.org/2000/svg"><path d="M6 4.875V6.75M5.353 1.875L1.228 9a.75.75 0 00.647 1.125h8.25A.749.749 0 0010.772 9L6.647 1.875a.745.745 0 00-1.294 0v0z" stroke="currentColor" stroke-linecap="round" stroke-linejoin="round"/><path d="M6 9a.563.563 0 100-1.125A.563.563 0 006 9z" fill="currentColor"/></symbol><symbol fill="none" viewBox="0 0 12 12" id="warning-circle" xmlns="http://www.w3.org/2000/svg"><path d="M6 10.5a4.5 4.5 0 100-9 4.5 4.5 0 000 9z" stroke="currentColor" stroke-miterlimit="10"/><path d="M6 3.75v2.625" stroke="currentColor" stroke-linecap="round" stroke-linejoin="round"/><path d="M6 8.625A.563.563 0 106 7.5a.563.563 0 000 1.125z" fill="currentColor"/></symbol></svg>