<?xml version="1.0" encoding="utf-8"?><svg xmlns="http://www.w3.org/2000/svg" xmlns:xlink="http://www.w3.org/1999/xlink"><symbol fill="none" viewBox="0 0 96 96" id="alert-error" xmlns="http://www.w3.org/2000/svg"><path d="M48 9a39 39 0 1039 39A39.075 39.075 0 0048 9zm-3 21a3 3 0 016 0v21a3 3 0 01-6 0V30zm3 39a4.5 4.5 0 110-8.999A4.5 4.5 0 0148 69z" fill="#F34D4D"/></symbol><symbol fill="none" viewBox="0 0 96 96" id="alert-success" xmlns="http://www.w3.org/2000/svg"><path d="M84.713 38.55c-1.425-1.462-2.888-3-3.45-4.313-.563-1.312-.526-3.262-.563-5.25-.038-3.637-.112-7.8-3-10.687-2.888-2.888-7.05-2.963-10.688-3-1.987-.038-4.012-.075-5.25-.563-1.237-.487-2.85-2.024-4.312-3.45C54.862 8.813 51.9 6 48 6c-3.9 0-6.862 2.813-9.45 5.287-1.462 1.425-3 2.888-4.313 3.45-1.312.563-3.262.525-5.25.563-3.637.037-7.8.112-10.687 3-2.888 2.887-2.963 7.05-3 10.688-.038 1.987-.075 4.012-.563 5.25-.487 1.237-2.024 2.85-3.45 4.312C8.813 41.138 6 44.1 6 48c0 3.9 2.813 6.862 5.287 9.45 1.425 1.462 2.888 3 3.45 4.313.563 1.312.525 3.262.563 5.25.037 3.637.112 7.8 3 10.687 2.887 2.888 7.05 2.962 10.688 3 1.987.037 4.012.075 5.25.563 1.237.487 2.85 2.024 4.312 3.45C41.138 87.188 44.1 90 48 90c3.9 0 6.862-2.813 9.45-5.287 1.462-1.425 3-2.888 4.313-3.45 1.312-.563 3.262-.526 5.25-.563 3.637-.038 7.8-.112 10.687-3 2.888-2.888 2.962-7.05 3-10.688.037-1.987.075-4.012.563-5.25.487-1.237 2.024-2.85 3.45-4.312C87.188 54.862 90 51.9 90 48c0-3.9-2.813-6.862-5.287-9.45zm-18.15 2.625l-21.976 21c-.568.534-1.32.83-2.1.825a2.963 2.963 0 01-2.062-.825l-10.987-10.5a2.998 2.998 0 01-.205-4.325 3 3 0 014.33-.025l8.924 8.512 19.95-19.012a3 3 0 014.126 4.35z" fill="#96E0B2"/></symbol><symbol fill="none" viewBox="0 0 104 104" id="alert-unknown" xmlns="http://www.w3.org/2000/svg"><path d="M50.47 4.634a4 4 0 013.06 0l30.88 12.79a4 4 0 012.165 2.166l12.791 30.88a4 4 0 010 3.06l-12.79 30.88a4 4 0 01-2.166 2.165L53.53 99.366a4 4 0 01-3.06 0l-30.88-12.79a4 4 0 01-2.165-2.166L4.634 53.53a4 4 0 010-3.06l12.79-30.88a4 4 0 012.166-2.165L50.47 4.634z" fill="#EAEAED"/><path d="M52 65.5c7.456 0 13.5-6.044 13.5-13.5S59.456 38.5 52 38.5 38.5 44.544 38.5 52 44.544 65.5 52 65.5z" stroke="#494957" stroke-width="2" stroke-miterlimit="10"/><path d="M52 45.25v7.875" stroke="#494957" stroke-width="2" stroke-linecap="round" stroke-linejoin="round"/><path d="M52 59.875a1.687 1.687 0 100-3.375 1.687 1.687 0 000 3.375z" fill="#494957"/></symbol><symbol fill="none" viewBox="0 0 15 10" id="arrow-left" xmlns="http://www.w3.org/2000/svg"><path d="M15 4.369V5.63H2.424l3.472 3.473L5 10 0 5l5-5 .896.896L2.424 4.37H15z" fill="currentColor"/></symbol><symbol fill="none" viewBox="0 0 17 16" id="arrow-right" xmlns="http://www.w3.org/2000/svg"><path d="M3 8h11" stroke="currentColor" stroke-width="1.333" stroke-linecap="round" stroke-linejoin="round"/><path d="M9.5 3.5L14 8l-4.5 4.5" stroke="currentColor" stroke-width="1.33" stroke-linecap="round" stroke-linejoin="round"/></symbol><symbol fill="none" viewBox="0 0 17 16" id="arrows-exchange" xmlns="http://www.w3.org/2000/svg"><path d="M7.167 11.333V2L4.5 4.666M9.833 4.667V14l2.667-2.667" stroke="currentColor" stroke-width="1.5" stroke-linecap="round" stroke-linejoin="round"/></symbol><symbol fill="none" viewBox="0 0 16 9" id="chevron-down" xmlns="http://www.w3.org/2000/svg"><path fill-rule="evenodd" clip-rule="evenodd" d="M.47.47a.75.75 0 011.06 0L8 6.94 14.47.47a.75.75 0 111.06 1.06l-7 7a.75.75 0 01-1.06 0l-7-7a.75.75 0 010-1.06z" fill="currentColor"/></symbol><symbol fill="none" viewBox="0 0 4 8" id="chevron-right" xmlns="http://www.w3.org/2000/svg"><path d="M.5 1l3 3-3 3" stroke="currentColor" stroke-linecap="round" stroke-linejoin="round"/></symbol><symbol fill="none" viewBox="0 0 38 36" id="connect-wallet" xmlns="http://www.w3.org/2000/svg"><g clip-path="url(#aiclip0_1061_24244)"><path d="M18.787 36c9.942 0 18-8.059 18-18s-8.058-18-18-18c-9.94 0-18 8.059-18 18s8.06 18 18 18z" fill="#CEE0F5"/><path d="M10.953 13.228c4.15-4.063 10.877-4.063 15.027 0l.5.489a.512.512 0 010 .735l-1.71 1.673a.27.27 0 01-.375 0l-.687-.673c-2.895-2.834-7.589-2.834-10.484 0l-.736.72a.27.27 0 01-.375 0L10.404 14.5a.513.513 0 010-.736l.549-.536zm18.56 3.46l1.52 1.488a.513.513 0 010 .735l-6.856 6.713a.54.54 0 01-.751 0L18.56 20.86a.135.135 0 00-.188 0l-4.866 4.764a.54.54 0 01-.751 0l-6.856-6.713a.513.513 0 010-.735l1.52-1.489a.54.54 0 01.752 0l4.866 4.764c.051.051.136.051.188 0l4.865-4.764a.54.54 0 01.752 0l4.866 4.764c.052.051.136.051.188 0l4.866-4.764a.54.54 0 01.75 0z" fill="#3396FF"/></g><defs><clipPath id="aiclip0_1061_24244"><path fill="#fff" transform="translate(.563)" d="M0 0h36.563v36H0z"/></clipPath></defs></symbol><symbol fill="none" viewBox="0 0 16 16" id="copy" xmlns="http://www.w3.org/2000/svg"><path d="M12 5.333H6.667c-.737 0-1.334.597-1.334 1.334V12c0 .736.597 1.333 1.334 1.333H12c.736 0 1.333-.597 1.333-1.333V6.667c0-.737-.597-1.334-1.333-1.334z" stroke="#494957" stroke-width="1.33" stroke-linecap="round" stroke-linejoin="round"/><path d="M10.667 5.333V4a1.333 1.333 0 00-1.334-1.333H4A1.333 1.333 0 002.667 4v5.333A1.333 1.333 0 004 10.667h1.333" stroke="#494957" stroke-width="1.333" stroke-linecap="round" stroke-linejoin="round"/></symbol><symbol fill="none" viewBox="0 0 16 16" id="cross" xmlns="http://www.w3.org/2000/svg"><path d="M.293.292a1 1 0 011.414 0L8 6.585 14.293.292a1 1 0 111.414 1.414L9.414 8l6.293 6.293a1 1 0 01-1.414 1.414L8 9.413l-6.293 6.293a1 1 0 01-1.414-1.414L6.586 8 .293 1.706a1 1 0 010-1.414z" fill="currentColor"/></symbol><symbol fill="none" viewBox="0 0 24 24" id="currency-busd" xmlns="http://www.w3.org/2000/svg"><g clip-path="url(#alclip0_1384_10121)"><path d="M12 24c6.628 0 12-5.372 12-12 0-6.627-5.372-12-12-12C5.373 0 0 5.373 0 12c0 6.628 5.373 12 12 12z" fill="#0C0D13"/><path d="M8.26 12.004l-1.78-1.78-1.78 1.78 1.78 1.78 1.78-1.78z" fill="url(#alpaint0_linear_1384_10121)"/><path d="M13.78 6.482L12 4.702 7.416 9.286l1.78 1.78 4.584-4.584z" fill="url(#alpaint1_linear_1384_10121)"/><path d="M16.525 9.229l-1.78-1.78-7.327 7.327 1.78 1.78 7.327-7.327z" fill="url(#alpaint2_linear_1384_10121)"/><path d="M19.295 11.996l-1.78-1.78-7.327 7.328 1.78 1.78 7.327-7.328z" fill="url(#alpaint3_linear_1384_10121)"/></g><defs><linearGradient id="alpaint0_linear_1384_10121" x1="8.26" y1="10.225" x2="4.7" y2="13.784" gradientUnits="userSpaceOnUse"><stop stop-color="#F1BB03"/><stop offset="1" stop-color="#F2BC03"/></linearGradient><linearGradient id="alpaint1_linear_1384_10121" x1="13.78" y1="4.702" x2="7.416" y2="11.066" gradientUnits="userSpaceOnUse"><stop stop-color="#F1BB03"/><stop offset="1" stop-color="#F2BC03"/></linearGradient><linearGradient id="alpaint2_linear_1384_10121" x1="16.525" y1="7.449" x2="7.418" y2="16.556" gradientUnits="userSpaceOnUse"><stop stop-color="#F1BB03"/><stop offset="1" stop-color="#F2BC03"/></linearGradient><linearGradient id="alpaint3_linear_1384_10121" x1="19.295" y1="10.217" x2="10.189" y2="19.324" gradientUnits="userSpaceOnUse"><stop stop-color="#F1BB03"/><stop offset="1" stop-color="#F2BC03"/></linearGradient><clipPath id="alclip0_1384_10121"><path fill="#fff" d="M0 0h24v24H0z"/></clipPath></defs></symbol><symbol fill="none" viewBox="0 0 32 32" id="currency-usdc" xmlns="http://www.w3.org/2000/svg"><g clip-path="url(#amclip0_1324_26047)"><path d="M16 32c8.837 0 16-7.163 16-16S24.837 0 16 0 0 7.163 0 16s7.163 16 16 16z" fill="#2775C9"/><path d="M16 28C9.372 28 4 22.628 4 16S9.372 4 16 4s12 5.372 12 12a12 12 0 01-12 12zm-.715-16.453a2.635 2.635 0 00-2.502 2.523c0 1.236.756 2.042 2.36 2.38l1.122.265c1.093.255 1.543.623 1.543 1.246S17.02 19.197 16 19.197a1.94 1.94 0 01-1.838-.93.694.694 0 00-.623-.398h-.603a.358.358 0 00-.286.419 2.788 2.788 0 002.666 2.124v.858a.72.72 0 001.44 0v-.868a2.676 2.676 0 002.645-2.635c0-1.297-.746-2.043-2.512-2.42l-1.022-.225c-1.021-.256-1.501-.593-1.501-1.165 0-.572.613-1.205 1.634-1.205a1.675 1.675 0 011.624.828.818.818 0 00.735.47h.48a.429.429 0 00.317-.511 2.706 2.706 0 00-2.43-2.043v-.705a.72.72 0 00-1.44 0v.756zM7.003 16a8.977 8.977 0 006.127 8.507h.143a.46.46 0 00.46-.46v-.214a.96.96 0 00-.593-.888 7.517 7.517 0 010-13.94.95.95 0 00.593-.879v-.235a.43.43 0 00-.572-.408A8.977 8.977 0 007.003 16zm17.994 0a8.976 8.976 0 00-6.127-8.497h-.153a.48.48 0 00-.48.48v.153a1.02 1.02 0 00.623.92 7.517 7.517 0 010 13.93 1.021 1.021 0 00-.613.909v.173a.48.48 0 00.633.45A8.977 8.977 0 0024.997 16z" fill="#fff"/></g><defs><clipPath id="amclip0_1324_26047"><path fill="#fff" d="M0 0h32v32H0z"/></clipPath></defs></symbol><symbol fill="none" viewBox="0 0 32 32" id="currency-usdt" xmlns="http://www.w3.org/2000/svg"><g clip-path="url(#anclip0_1324_26042)"><path d="M32 16c0 8.837-7.163 16-16 16S0 24.837 0 16 7.163 0 16 0s16 7.163 16 16z" fill="#009393"/><path fill-rule="evenodd" clip-rule="evenodd" d="M9.791 8h12.672c.302 0 .582.162.733.424l3.691 6.425a.847.847 0 01-.138 1.024L16.587 25.926a.844.844 0 01-1.188 0L5.251 15.886a.847.847 0 01-.126-1.044L9.07 8.404A.845.845 0 019.791 8zm11.036 2.868v1.803h-3.61v1.25c2.536.133 4.438.682 4.452 1.34v1.37c-.015.658-1.916 1.206-4.452 1.34v3.067H14.82v-3.067c-2.535-.134-4.437-.682-4.451-1.34v-1.37c.014-.658 1.916-1.207 4.451-1.34v-1.25h-3.61v-1.803h9.617zm-4.808 6.161c2.705 0 4.967-.464 5.52-1.083-.47-.525-2.167-.939-4.322-1.052v1.308a22.874 22.874 0 01-2.397 0v-1.308c-2.155.113-3.852.527-4.321 1.052.553.62 2.814 1.083 5.52 1.083z" fill="#fff"/></g><defs><clipPath id="anclip0_1324_26042"><path fill="#fff" d="M0 0h32v32H0z"/></clipPath></defs></symbol><symbol fill="none" viewBox="0 0 45 42" id="drag" xmlns="http://www.w3.org/2000/svg"><path d="M4.816 0h15.65a4 4 0 013.685 2.454l3.426 7.022h12.607a4.053 4.053 0 014.053 4.052v24.42A4.06 4.06 0 0140.184 42H4.816a4.06 4.06 0 01-4.053-4.053V4.053A4.06 4.06 0 014.816 0zm17.36 3.353a1.849 1.849 0 00-1.71-1.143H4.817a1.843 1.843 0 00-1.842 1.843v5.423h22.18l-2.978-6.123z" fill="currentColor"/></symbol><symbol fill="none" viewBox="0 0 104 104" id="error-page-icon" xmlns="http://www.w3.org/2000/svg"><path d="M50.47 4.634a4 4 0 013.06 0l30.88 12.79a4 4 0 012.165 2.166l12.791 30.88a4 4 0 010 3.06l-12.79 30.88a4 4 0 01-2.166 2.165L53.53 99.366a4 4 0 01-3.06 0l-30.88-12.79a4 4 0 01-2.165-2.166L4.634 53.53a4 4 0 010-3.06l12.79-30.88a4 4 0 012.166-2.165L50.47 4.634z" fill="#EAEAED"/><path d="M52 65.5c7.456 0 13.5-6.044 13.5-13.5S59.456 38.5 52 38.5 38.5 44.544 38.5 52 44.544 65.5 52 65.5z" stroke="#494957" stroke-width="2" stroke-miterlimit="10"/><path d="M52 45.25v7.875" stroke="#494957" stroke-width="2" stroke-linecap="round" stroke-linejoin="round"/><path d="M52 59.875a1.687 1.687 0 100-3.375 1.687 1.687 0 000 3.375z" fill="#494957"/></symbol><symbol fill="none" viewBox="0 0 12 12" id="hash" xmlns="http://www.w3.org/2000/svg"><path fill-rule="evenodd" clip-rule="evenodd" d="M8.615 4.081l.341-1.933L8.115 2 7.748 4.08h-2.55l.34-1.933L4.697 2 4.33 4.08H2.568v.854H4.18l-.452 2.563H2v.854h1.577l-.265 1.5.842.148.29-1.648h2.55l-.263 1.5.84.148.291-1.648h2.11v-.854H8.014l.452-2.563h2.076v-.854H8.615zm-1.018.854h-2.55l-.452 2.563h2.55l.452-2.563z" fill="currentColor"/></symbol><symbol fill="none" viewBox="0 0 18 19" id="home" xmlns="http://www.w3.org/2000/svg"><path d="M10.81 1.588a2.75 2.75 0 00-3.62 0l-6 5.25a2.75 2.75 0 00-.94 2.07V16A2.75 2.75 0 003 18.75h2A2.75 2.75 0 007.75 16v-2a1.25 1.25 0 112.5 0v2A2.75 2.75 0 0013 18.75h2A2.75 2.75 0 0017.75 16V8.908a2.75 2.75 0 00-.94-2.07l-6-5.25z" fill="currentColor"/></symbol><symbol fill="none" viewBox="0 0 36 36" id="injected-wallet" xmlns="http://www.w3.org/2000/svg"><g clip-path="url(#asclip0_1690_5801)" stroke="#5959E4" stroke-width="2" stroke-linecap="round" stroke-linejoin="round"><path d="M8.813 18h19.25M20.188 10.125L28.063 18l-7.875 7.875"/></g><rect x=".25" y=".25" width="35.5" height="35.5" rx="17.75" stroke="#D8D8DB" stroke-width=".5"/><defs><clipPath id="asclip0_1690_5801"><rect width="36" height="36" rx="18" fill="#fff"/></clipPath></defs></symbol><symbol fill="none" viewBox="0 0 36 36" id="ledger" xmlns="http://www.w3.org/2000/svg"><rect width="36" height="36" rx="18" fill="#CEE0F5"/><path d="M26 10.5h3.75v3.75M10 25.5H6.25v-3.75M29.75 21.75v3.75H26M6.25 14.25V10.5H10" stroke="#283B50" stroke-linecap="round" stroke-linejoin="round"/><path d="M21 23h-5V13" stroke="#283B50" stroke-width="2" stroke-linecap="round" stroke-linejoin="round"/></symbol><symbol fill="none" viewBox="0 0 7 156" id="line-wave" xmlns="http://www.w3.org/2000/svg"><path d="M2.143 0c.586 30.46-4 47.147 1.5 78s.914 47.539 1.5 78" stroke="#F5F5FC"/></symbol><symbol fill="none" viewBox="0 0 8 192" id="line-wave-mobile" xmlns="http://www.w3.org/2000/svg"><path d="M2.476 0c.586 37.49-4 58.027 1.5 96s.915 58.51 1.5 96" stroke="#F5F5FC"/></symbol><symbol fill="none" viewBox="0 0 16 16" id="logout" xmlns="http://www.w3.org/2000/svg"><path d="M9.333 5.333V4A1.333 1.333 0 008 2.667H3.333A1.333 1.333 0 002 4v8a1.333 1.333 0 001.333 1.333H8A1.334 1.334 0 009.333 12v-1.333" stroke="#FF3E3E" stroke-width="1.33" stroke-linecap="round" stroke-linejoin="round"/><path d="M4.667 8H14l-2-2m0 4l2-2" stroke="#FF3E3E" stroke-width="1.333" stroke-linecap="round" stroke-linejoin="round"/></symbol><symbol fill="none" viewBox="0 0 37 36" id="metamask" xmlns="http://www.w3.org/2000/svg"><rect x=".125" width="36" height="36" rx="18" fill="#5959E4"/><path d="M27.248 9l-7.91 5.625 1.47-3.315L27.249 9z" fill="#E17726" stroke="#E17726" stroke-width=".494" stroke-linecap="round" stroke-linejoin="round"/><path d="M9.001 9l7.84 5.678-1.4-3.368L9.001 9zM24.4 22.043l-2.104 3.09 4.506 1.192 1.291-4.215-3.693-.067zM8.164 22.11l1.283 4.215 4.5-1.192-2.097-3.09-3.686.067z" fill="#E27625" stroke="#E27625" stroke-width=".494" stroke-linecap="round" stroke-linejoin="round"/><path d="M13.704 16.823l-1.252 1.814 4.46.195-.148-4.612-3.06 2.603zM22.546 16.823l-3.107-2.655-.101 4.665 4.46-.195-1.252-1.816zM13.947 25.133l2.7-1.253-2.325-1.74-.375 2.993zM19.604 23.88l2.691 1.253-.367-2.993-2.324 1.74z" fill="#E27625" stroke="#E27625" stroke-width=".494" stroke-linecap="round" stroke-linejoin="round"/><path d="M22.296 25.133l-2.692-1.253.219 1.68-.024.713 2.497-1.14zM13.947 25.133l2.504 1.14-.016-.713.211-1.68-2.7 1.253z" fill="#D5BFB2" stroke="#D5BFB2" stroke-width=".494" stroke-linecap="round" stroke-linejoin="round"/><path d="M16.497 21.03l-2.237-.63 1.58-.697.657 1.327zM19.753 21.03l.657-1.327 1.588.697-2.245.63z" fill="#233447" stroke="#233447" stroke-width=".494" stroke-linecap="round" stroke-linejoin="round"/><path d="M13.947 25.133l.39-3.09-2.487.067 2.097 3.023zM21.912 22.043l.384 3.09L24.4 22.11l-2.488-.067zM23.798 18.637l-4.46.195.415 2.198.657-1.328 1.588.698 1.8-1.762zM14.26 20.4l1.58-.697.658 1.327.414-2.198-4.46-.195L14.26 20.4z" fill="#CC6228" stroke="#CC6228" stroke-width=".494" stroke-linecap="round" stroke-linejoin="round"/><path d="M12.452 18.637l1.87 3.503-.062-1.74-1.808-1.762zM21.998 20.4l-.07 1.74 1.87-3.503-1.8 1.763zM16.912 18.832l-.414 2.198.524 2.595.117-3.42-.227-1.372zM19.338 18.832l-.22 1.366.11 3.427.525-2.595-.415-2.198z" fill="#E27525" stroke="#E27525" stroke-width=".494" stroke-linecap="round" stroke-linejoin="round"/><path d="M19.753 21.03l-.525 2.595.376.255 2.324-1.74.07-1.74-2.245.63zM14.26 20.4l.062 1.74 2.324 1.74.376-.255-.524-2.595-2.238-.63z" fill="#F5841F" stroke="#F5841F" stroke-width=".494" stroke-linecap="round" stroke-linejoin="round"/><path d="M19.8 26.273l.023-.713-.204-.165h-2.988l-.196.165.016.713-2.504-1.14.876.69L16.599 27h3.044l1.784-1.177.869-.69-2.497 1.14z" fill="#C0AC9D" stroke="#C0AC9D" stroke-width=".494" stroke-linecap="round" stroke-linejoin="round"/><path d="M19.604 23.88l-.376-.255h-2.206l-.376.255-.211 1.68.196-.165h2.988l.204.165-.22-1.68z" fill="#161616" stroke="#161616" stroke-width=".494" stroke-linecap="round" stroke-linejoin="round"/><path d="M27.585 14.992l.665-3.105L27.248 9l-7.644 5.438 2.942 2.385 4.155 1.162.915-1.027-.399-.278.634-.555-.485-.36L28 15.3l-.415-.308zM8 11.887l.673 3.105-.43.308.641.465-.485.36.634.555-.4.277.916 1.028 4.155-1.162 2.942-2.386L9.002 9 8 11.887z" fill="#763E1A" stroke="#763E1A" stroke-width=".494" stroke-linecap="round" stroke-linejoin="round"/><path d="M26.7 17.985l-4.154-1.163 1.252 1.815-1.87 3.503 2.472-.03h3.694L26.7 17.985zM13.704 16.822l-4.155 1.163-1.385 4.125h3.686l2.472.03-1.87-3.503 1.252-1.815zM19.338 18.833l.266-4.395 1.205-3.128H15.44l1.205 3.128.266 4.395.102 1.38.008 3.412h2.206l.008-3.412.102-1.38z" fill="#F5841F" stroke="#F5841F" stroke-width=".494" stroke-linecap="round" stroke-linejoin="round"/></symbol><symbol fill="none" viewBox="0 0 24 24" id="minus" xmlns="http://www.w3.org/2000/svg"><path d="M5 12h14" stroke="currentColor" stroke-width="2" stroke-linecap="round" stroke-linejoin="round"/></symbol><symbol fill="none" viewBox="0 0 16 16" id="pin" xmlns="http://www.w3.org/2000/svg"><path d="M5.5 10.5L3 13M9.644 1.856L5.75 5.75s-1.731-.869-3.587.631a.5.5 0 00-.038.744l6.738 6.737a.499.499 0 00.756-.05c.525-.693 1.35-2.13.631-3.562l3.894-3.894a.5.5 0 000-.712l-3.788-3.788a.5.5 0 00-.712 0z" stroke="currentColor" stroke-width="1.3" stroke-linecap="round" stroke-linejoin="round"/></symbol><symbol fill="none" viewBox="0 0 18 18" id="plus" xmlns="http://www.w3.org/2000/svg"><path fill-rule="evenodd" clip-rule="evenodd" d="M9 .25a.75.75 0 01.75.75v7.25H17a.75.75 0 010 1.5H9.75V17a.75.75 0 01-1.5 0V9.75H1a.75.75 0 010-1.5h7.25V1A.75.75 0 019 .25z" fill="currentColor"/></symbol><symbol fill="none" viewBox="0 0 24 24" id="plus-bold" xmlns="http://www.w3.org/2000/svg"><path d="M12 5v14M5 12h14" stroke="currentColor" stroke-width="2" stroke-linecap="round" stroke-linejoin="round"/></symbol><symbol fill="none" viewBox="0 0 24 24" id="question" xmlns="http://www.w3.org/2000/svg"><path d="M12 21a9 9 0 100-18 9 9 0 000 18z" stroke="currentColor" stroke-linecap="round" stroke-linejoin="round"/><path d="M12 18a1.5 1.5 0 100-3 1.5 1.5 0 000 3z" fill="currentColor"/><path d="M12 12.75a2.625 2.625 0 10-2.625-2.625" stroke="currentColor" stroke-linecap="round" stroke-linejoin="round"/></symbol><symbol fill="none" viewBox="0 0 6 6" id="required" xmlns="http://www.w3.org/2000/svg"><path d="M2.186 3.354L0 2.707l.323-1.073 2.199.805L2.46 0h1.118l-.075 2.439 2.162-.78L6 2.744l-2.236.646 1.441 1.94-.907.67-1.354-2.061-1.242 2.012-.907-.646 1.391-1.951z" fill="currentColor"/></symbol><symbol fill="none" viewBox="0 0 12 13" id="search" xmlns="http://www.w3.org/2000/svg"><path d="M10.006 9.305l-.575-.574-.282.358a5.18 5.18 0 001.257-3.386 5.203 5.203 0 10-5.203 5.203 5.18 5.18 0 003.386-1.257l-.394.308.61.549 2.002 1.994L12 11.307l-1.994-2.002zm-4.803-.574C3.21 8.731 2 7.696 2 5.703s1.21-3.017 3.203-3.017c1.993 0 3.22 1.024 3.22 3.017 0 1.993-1.227 3.028-3.22 3.028z" fill="currentColor"/></symbol><symbol fill="none" viewBox="0 0 7 6" id="select-angle" xmlns="http://www.w3.org/2000/svg"><path d="M1.667.333h4.666a.667.667 0 01.614.917L4.58 5.333a.667.667 0 01-1.167 0L1.047 1.25A.667.667 0 011.63.333" fill="currentColor"/></symbol><symbol fill="none" viewBox="0 0 20 20" id="settings" xmlns="http://www.w3.org/2000/svg"><path d="M8.604 3.598c.355-1.464 2.437-1.464 2.792 0a1.437 1.437 0 002.144.888c1.286-.783 2.758.688 1.975 1.975a1.436 1.436 0 00.887 2.143c1.464.355 1.464 2.437 0 2.792a1.437 1.437 0 00-.888 2.144c.784 1.286-.688 2.758-1.975 1.975a1.436 1.436 0 00-2.143.887c-.355 1.464-2.437 1.464-2.792 0a1.437 1.437 0 00-2.144-.888c-1.286.784-2.758-.688-1.975-1.975a1.437 1.437 0 00-.888-2.143c-1.463-.355-1.463-2.437 0-2.792a1.437 1.437 0 00.889-2.144c-.783-1.286.688-2.758 1.975-1.975a1.435 1.435 0 002.143-.888z" stroke="currentColor" stroke-linecap="round" stroke-linejoin="round"/><path d="M10 12.5a2.5 2.5 0 100-5 2.5 2.5 0 000 5z" stroke="currentColor" stroke-linecap="round" stroke-linejoin="round"/></symbol><symbol fill="none" viewBox="0 0 32 32" id="sparkle" xmlns="http://www.w3.org/2000/svg"><path d="M17.338 21.938l-2.4 6.513a1 1 0 01-1.875 0l-2.4-6.513a1.013 1.013 0 00-.6-.6l-6.513-2.4a1 1 0 010-1.875l6.513-2.4a1.014 1.014 0 00.6-.6l2.4-6.513a1 1 0 011.875 0l2.4 6.513a1.012 1.012 0 00.6.6l6.513 2.4a1 1 0 010 1.875l-6.513 2.4a1.011 1.011 0 00-.6.6v0zM22 2v6M25 5h-6M28 9v4M30 11h-4" stroke="currentColor" stroke-width="1.5" stroke-linecap="round" stroke-linejoin="round"/></symbol><symbol fill="none" viewBox="0 0 15 16" id="timer" xmlns="http://www.w3.org/2000/svg"><path d="M5 0a.5.5 0 000 1h4a.5.5 0 000-1H5zm7.656 1.929a.5.5 0 10-.707.707l1.414 1.414a.5.5 0 10.707-.707L12.656 1.93zM7 4a.5.5 0 00-.5.5v5a.5.5 0 001 0v-5A.5.5 0 007 4zm0 12A7 7 0 107 2a7 7 0 000 14zm0-1A6 6 0 117 3a6 6 0 010 12z" fill="currentColor"/></symbol><symbol fill="none" viewBox="0 0 24 24" id="trash" xmlns="http://www.w3.org/2000/svg"><path d="M4 7h16M10 11v6M14 11v6M5 7l1 12a2 2 0 002 2h8a2 2 0 002-2l1-12M9 7V4a1 1 0 011-1h4a1 1 0 011 1v3" stroke="currentColor" stroke-width="2" stroke-linecap="round" stroke-linejoin="round"/></symbol><symbol fill="none" viewBox="0 0 5 6" id="triangle-right" xmlns="http://www.w3.org/2000/svg"><path d="M4.9 3.198A.238.238 0 005 3a.238.238 0 00-.1-.198L.81.032A.185.185 0 00.604.03.237.237 0 00.5.23v5.54c0 .082.04.16.104.2.064.041.143.04.206-.003l4.09-2.77z" fill="currentColor"/></symbol><symbol fill="none" viewBox="0 0 37 36" id="trust-wallet" xmlns="http://www.w3.org/2000/svg"><g clip-path="url(#blclip0_1061_24243)"><path d="M18.225 36c9.941 0 18-8.059 18-18s-8.059-18-18-18-18 8.059-18 18 8.059 18 18 18z" fill="#CEE0F5"/><path d="M18.494 8c3.438 2.82 7.38 2.646 8.506 2.646-.246 16.037-2.123 12.857-8.506 17.354-6.382-4.497-8.248-1.317-8.494-17.354 1.115 0 5.057.174 8.494-2.646z" stroke="#3375BB" stroke-width="2" stroke-miterlimit="10" stroke-linecap="round" stroke-linejoin="round"/></g><defs><clipPath id="blclip0_1061_24243"><path fill="#fff" d="M0 0h36.563v36H0z"/></clipPath></defs></symbol><symbol fill="none" viewBox="0 0 20 20" id="upload" xmlns="http://www.w3.org/2000/svg"><path d="M3.333 14.167v1.667A1.667 1.667 0 005 17.5h10a1.667 1.667 0 001.667-1.666v-1.667M5.833 7.5L10 3.333 14.167 7.5M10 3.333v10" stroke="currentColor" stroke-linecap="round" stroke-linejoin="round"/></symbol><symbol fill="none" viewBox="0 0 20 20" id="users" xmlns="http://www.w3.org/2000/svg"><path d="M6.875 12.5a4.062 4.062 0 100-8.125 4.062 4.062 0 000 8.125z" stroke="currentColor" stroke-miterlimit="10"/><path d="M12.14 4.523c.36-.097.73-.147 1.102-.148a4.063 4.063 0 010 8.125M1.25 15.422a6.875 6.875 0 0111.25 0M13.242 12.5a6.868 6.868 0 015.625 2.922" stroke="currentColor" stroke-linecap="round" stroke-linejoin="round"/></symbol><symbol fill="none" viewBox="0 0 24 24" id="wallet" xmlns="http://www.w3.org/2000/svg"><path d="M3.75 6v12a1.5 1.5 0 001.5 1.5h15a.75.75 0 00.75-.75V8.25a.75.75 0 00-.75-.75h-15A1.5 1.5 0 013.75 6zm0 0a1.5 1.5 0 011.5-1.5H18" stroke="currentColor" stroke-width="1.5" stroke-linecap="round" stroke-linejoin="round"/><path d="M16.875 14.625a1.125 1.125 0 100-2.25 1.125 1.125 0 000 2.25z" fill="currentColor"/></symbol><symbol fill="none" viewBox="0 0 16 16" id="wallet-angle-down" xmlns="http://www.w3.org/2000/svg"><path d="M4.115 5h7.781c.182 0 .36.032.52.09.16.057.295.14.396.242.101.102.164.218.182.34a.531.531 0 01-.075.357l-3.946 4.585a1.002 1.002 0 01-.408.282A1.543 1.543 0 018 11c-.198 0-.393-.036-.564-.104a1.002 1.002 0 01-.408-.282L3.082 6.029a.532.532 0 01-.077-.35.607.607 0 01.169-.333c.095-.101.225-.185.378-.245A1.53 1.53 0 014.054 5" fill="#6C6C7D"/></symbol><symbol fill="none" viewBox="0 0 12 12" id="warning" xmlns="http://www.w3.org/2000/svg"><path d="M6 4.875V6.75M5.353 1.875L1.228 9a.75.75 0 00.647 1.125h8.25A.749.749 0 0010.772 9L6.647 1.875a.745.745 0 00-1.294 0v0z" stroke="currentColor" stroke-linecap="round" stroke-linejoin="round"/><path d="M6 9a.563.563 0 100-1.125A.563.563 0 006 9z" fill="currentColor"/></symbol><symbol fill="none" viewBox="0 0 12 12" id="warning-circle" xmlns="http://www.w3.org/2000/svg"><path d="M6 10.5a4.5 4.5 0 100-9 4.5 4.5 0 000 9z" stroke="currentColor" stroke-miterlimit="10"/><path d="M6 3.75v2.625" stroke="currentColor" stroke-linecap="round" stroke-linejoin="round"/><path d="M6 8.625A.563.563 0 106 7.5a.563.563 0 000 1.125z" fill="currentColor"/></symbol></svg>