<svg width="153" height="22" viewBox="0 0 153 22" fill="none" xmlns="http://www.w3.org/2000/svg">
<path d="M0.979492 21.6696L0.979492 2.3955H9.73544C11.8281 2.3955 13.6729 2.79933 15.2699 3.60701C16.8669 4.39633 18.1151 5.50688 19.0145 6.93867C19.914 8.37046 20.3637 10.0684 20.3637 12.0325C20.3637 13.9783 19.914 15.6763 19.0145 17.1264C18.1151 18.5582 16.8669 19.6779 15.2699 20.4856C13.6729 21.2749 11.8281 21.6696 9.73544 21.6696H0.979492ZM5.44007 18.0075H9.51516C10.8001 18.0075 11.9107 17.7689 12.8468 17.2916C13.8014 16.796 14.5356 16.0985 15.0496 15.199C15.5819 14.2995 15.8481 13.2441 15.8481 12.0325C15.8481 10.8027 15.5819 9.74718 15.0496 8.86608C14.5356 7.96663 13.8014 7.27827 12.8468 6.801C11.9107 6.30538 10.8001 6.05757 9.51516 6.05757H5.44007V18.0075Z" fill="#1B1B20"/>
<path d="M20.9256 21.6696L29.5163 2.3955H33.9218L42.5401 21.6696H37.8593L30.8104 4.65332H32.5727L25.4963 21.6696H20.9256ZM25.221 17.5394L26.4049 14.1527H36.3173L37.5289 17.5394H25.221Z" fill="#1B1B20"/>
<path d="M53.6326 22C52.109 22 50.6956 21.7522 49.3923 21.2566C48.1074 20.761 46.9876 20.0634 46.0331 19.164C45.0969 18.2645 44.3627 17.209 43.8304 15.9975C43.3164 14.786 43.0594 13.4643 43.0594 12.0325C43.0594 10.6008 43.3164 9.2791 43.8304 8.06759C44.3627 6.85607 45.1061 5.80059 46.0606 4.90113C47.0152 4.00167 48.1349 3.30413 49.4198 2.80851C50.7048 2.31289 52.0999 2.06508 53.6051 2.06508C55.1286 2.06508 56.5237 2.31289 57.7903 2.80851C59.0752 3.30413 60.1858 4.00167 61.122 4.90113C62.0765 5.80059 62.8199 6.85607 63.3523 8.06759C63.8846 9.26074 64.1508 10.5824 64.1508 12.0325C64.1508 13.4643 63.8846 14.7952 63.3523 16.025C62.8199 17.2365 62.0765 18.292 61.122 19.1915C60.1858 20.0726 59.0752 20.761 57.7903 21.2566C56.5237 21.7522 55.1378 22 53.6326 22ZM53.6051 18.2003C54.4678 18.2003 55.2571 18.0534 55.973 17.7597C56.7073 17.466 57.3498 17.0438 57.9004 16.4931C58.4511 15.9424 58.8733 15.2908 59.167 14.5382C59.4791 13.7856 59.6351 12.9504 59.6351 12.0325C59.6351 11.1147 59.4791 10.2795 59.167 9.52691C58.8733 8.7743 58.4511 8.12265 57.9004 7.57197C57.3681 7.02128 56.7348 6.59908 56.0006 6.30538C55.2663 6.01168 54.4678 5.86483 53.6051 5.86483C52.7423 5.86483 51.9438 6.01168 51.2096 6.30538C50.4937 6.59908 49.8604 7.02128 49.3097 7.57197C48.759 8.12265 48.3276 8.7743 48.0156 9.52691C47.7219 10.2795 47.575 11.1147 47.575 12.0325C47.575 12.932 47.7219 13.7672 48.0156 14.5382C48.3276 15.2908 48.7498 15.9424 49.2822 16.4931C49.8329 17.0438 50.4753 17.466 51.2096 17.7597C51.9438 18.0534 52.7423 18.2003 53.6051 18.2003Z" fill="#1B1B20"/>
<path d="M81.0831 21.6696L72.7677 2.3955H77.5863L84.8553 19.4668H82.0193L89.3985 2.3955H93.8316L85.4886 21.6696H81.0831Z" fill="#1B1B20"/>
<path d="M95.3799 21.6696V6.85607H99.6753V21.6696H95.3799ZM97.5276 4.79099C96.7383 4.79099 96.0958 4.56154 95.6002 4.10263C95.1046 3.64372 94.8568 3.07468 94.8568 2.3955C94.8568 1.71631 95.1046 1.14727 95.6002 0.688362C96.0958 0.229454 96.7383 0 97.5276 0C98.3169 0 98.9594 0.220276 99.455 0.660828C99.9507 1.08302 100.198 1.63371 100.198 2.31289C100.198 3.02879 99.9507 3.62537 99.455 4.10263C98.9778 4.56154 98.3353 4.79099 97.5276 4.79099Z" fill="#1B1B20"/>
<path d="M112.418 21.8899C111.114 21.8899 109.995 21.6145 109.059 21.0638C108.122 20.5131 107.406 19.6779 106.911 18.5582C106.415 17.4201 106.167 15.9883 106.167 14.2628C106.167 12.519 106.424 11.0872 106.938 9.96746C107.471 8.84773 108.205 8.01252 109.141 7.46183C110.077 6.91114 111.17 6.6358 112.418 6.6358C113.813 6.6358 115.061 6.94785 116.162 7.57197C117.282 8.19608 118.163 9.07718 118.806 10.2153C119.467 11.3534 119.797 12.7025 119.797 14.2628C119.797 15.8048 119.467 17.1448 118.806 18.2829C118.163 19.4209 117.282 20.3112 116.162 20.9537C115.061 21.5778 113.813 21.8899 112.418 21.8899ZM103.662 21.6696V1.23905H107.957V9.85732L107.682 14.2353L107.764 18.6408V21.6696H103.662ZM111.674 18.3655C112.39 18.3655 113.023 18.2003 113.574 17.8698C114.143 17.5394 114.593 17.0713 114.923 16.4656C115.272 15.8415 115.447 15.1072 115.447 14.2628C115.447 13.4001 115.272 12.6658 114.923 12.0601C114.593 11.4543 114.143 10.9862 113.574 10.6558C113.023 10.3254 112.39 10.1602 111.674 10.1602C110.958 10.1602 110.316 10.3254 109.747 10.6558C109.178 10.9862 108.728 11.4543 108.398 12.0601C108.067 12.6658 107.902 13.4001 107.902 14.2628C107.902 15.1072 108.067 15.8415 108.398 16.4656C108.728 17.0713 109.178 17.5394 109.747 17.8698C110.316 18.2003 110.958 18.3655 111.674 18.3655Z" fill="#1B1B20"/>
<path d="M130.024 21.8899C128.335 21.8899 126.848 21.5595 125.563 20.8986C124.297 20.2378 123.315 19.3383 122.617 18.2003C121.92 17.0438 121.571 15.7313 121.571 14.2628C121.571 12.776 121.911 11.4635 122.59 10.3254C123.287 9.16896 124.233 8.2695 125.426 7.62703C126.619 6.96621 127.968 6.6358 129.473 6.6358C130.923 6.6358 132.227 6.94785 133.383 7.57197C134.558 8.17772 135.485 9.05883 136.164 10.2153C136.843 11.3534 137.183 12.7209 137.183 14.3179C137.183 14.4831 137.174 14.6758 137.155 14.8961C137.137 15.098 137.119 15.2908 137.1 15.4743H125.068V12.9687H134.843L133.191 13.7121C133.191 12.9412 133.034 12.2712 132.722 11.7021C132.41 11.1331 131.979 10.6925 131.428 10.3805C130.878 10.0501 130.235 9.88486 129.501 9.88486C128.767 9.88486 128.115 10.0501 127.546 10.3805C126.995 10.6925 126.564 11.1423 126.252 11.7297C125.94 12.2987 125.784 12.9779 125.784 13.7672V14.428C125.784 15.2357 125.958 15.9516 126.307 16.5757C126.674 17.1815 127.179 17.6496 127.821 17.98C128.482 18.292 129.253 18.4481 130.134 18.4481C130.924 18.4481 131.612 18.3287 132.199 18.0901C132.805 17.8515 133.356 17.4935 133.851 17.0163L136.137 19.4944C135.458 20.2653 134.604 20.8619 133.576 21.2841C132.548 21.6879 131.364 21.8899 130.024 21.8899Z" fill="#1B1B20"/>
<path d="M145.026 21.8899C143.76 21.8899 142.539 21.743 141.364 21.4493C140.208 21.1373 139.29 20.7518 138.611 20.2929L140.043 17.209C140.722 17.6312 141.52 17.98 142.438 18.2553C143.374 18.5123 144.292 18.6408 145.192 18.6408C146.183 18.6408 146.88 18.5215 147.284 18.2829C147.706 18.0442 147.918 17.7138 147.918 17.2916C147.918 16.9428 147.752 16.6859 147.422 16.5207C147.11 16.3371 146.688 16.1994 146.155 16.1076C145.623 16.0159 145.036 15.9241 144.393 15.8323C143.769 15.7405 143.136 15.6212 142.493 15.4743C141.851 15.3091 141.263 15.0705 140.731 14.7584C140.199 14.4464 139.767 14.0242 139.437 13.4919C139.125 12.9595 138.969 12.2712 138.969 11.4268C138.969 10.4906 139.235 9.66458 139.767 8.94869C140.318 8.23279 141.107 7.67293 142.135 7.26909C143.163 6.84689 144.393 6.6358 145.825 6.6358C146.835 6.6358 147.862 6.74593 148.909 6.96621C149.955 7.18648 150.827 7.50772 151.525 7.92991L150.093 10.9862C149.377 10.564 148.652 10.2795 147.918 10.1327C147.202 9.96746 146.504 9.88486 145.825 9.88486C144.87 9.88486 144.173 10.0134 143.732 10.2703C143.292 10.5273 143.071 10.8577 143.071 11.2616C143.071 11.6287 143.228 11.904 143.54 12.0876C143.87 12.2712 144.301 12.418 144.834 12.5282C145.366 12.6383 145.944 12.7393 146.568 12.831C147.211 12.9045 147.853 13.0238 148.496 13.189C149.138 13.3542 149.716 13.5928 150.23 13.9049C150.763 14.1986 151.194 14.6116 151.525 15.1439C151.855 15.6579 152.02 16.3371 152.02 17.1815C152.02 18.0993 151.745 18.9161 151.194 19.632C150.643 20.3296 149.845 20.8803 148.799 21.2841C147.771 21.6879 146.513 21.8899 145.026 21.8899Z" fill="#1B1B20"/>
</svg>
