<svg width="183" height="48" viewBox="0 0 183 48" fill="none" xmlns="http://www.w3.org/2000/svg">
    <g clip-path="url(#clip0_2588_32872)">
        <path
            d="M89.536 24.9808H67.9278C68.1485 27.0532 69.154 28.962 70.737 30.3137C72.3201 31.6653 74.3602 32.3571 76.437 32.2463C77.9216 32.3366 79.4011 32.0019 80.7028 31.2811C82.0045 30.5604 83.0748 29.4834 83.7887 28.1759H89.008C88.1585 30.87 86.4421 33.206 84.1272 34.8189C81.8125 36.4317 79.0296 37.2304 76.2137 37.09C74.3946 37.1419 72.5842 36.8179 70.8954 36.1384C69.2065 35.4589 67.6754 34.4383 66.3971 33.1402C65.1188 31.842 64.121 30.294 63.4654 28.5927C62.8099 26.8914 62.5107 25.073 62.5868 23.2509C62.5176 21.4371 62.8177 19.6282 63.4689 17.9344C64.1199 16.2407 65.1082 14.6974 66.3737 13.3989C67.6392 12.1002 69.1551 11.0734 70.8294 10.3809C72.5036 9.68844 74.3011 9.34484 76.1122 9.37102C84.7839 9.35067 90.2264 16.2499 89.536 24.9808ZM68.0294 20.4423H84.0933C83.656 18.638 82.6265 17.0333 81.1698 15.8857C79.7132 14.7382 77.9142 14.1143 76.0614 14.1143C74.2086 14.1143 72.4095 14.7382 70.9529 15.8857C69.4964 17.0333 68.4667 18.638 68.0294 20.4423Z"
            fill="#1B1B20"/>
        <path
            d="M118.639 21.2766V36.3164H113.623V22.0703C113.623 17.5116 110.983 14.1332 106.434 14.1332C101.885 14.1332 98.3103 17.8779 98.3103 23.1286V36.3164H93.3145V10.1035H98.229V13.6448H98.4525C99.5326 12.2861 100.908 11.1928 102.475 10.4486C104.041 9.70433 105.756 9.32874 107.49 9.3505C114.151 9.3505 118.639 14.0111 118.639 21.2766Z"
            fill="#1B1B20"/>
        <path
            d="M145.267 10.104H150.222V46.8998H145.267V32.2466H145.043C143.982 33.7529 142.572 34.9786 140.934 35.8186C139.296 36.6588 137.479 37.0882 135.641 37.07C128.024 37.07 122.358 31.3919 122.358 23.1902C122.358 14.9884 127.922 9.24923 135.701 9.35099C137.51 9.31422 139.302 9.7083 140.93 10.5008C142.558 11.2933 143.975 12.4617 145.063 13.9098H145.267V10.104ZM145.267 23.1902C145.324 21.9823 145.136 20.7754 144.715 19.6424C144.293 18.5095 143.646 17.474 142.813 16.5988C141.982 15.7236 140.98 15.0269 139.871 14.5509C138.762 14.0749 137.568 13.8295 136.361 13.8295C135.155 13.8295 133.961 14.0749 132.851 14.5509C131.742 15.0269 130.741 15.7236 129.908 16.5988C129.075 17.474 128.429 18.5095 128.008 19.6424C127.586 20.7754 127.398 21.9823 127.456 23.1902C127.398 24.3979 127.586 25.6049 128.008 26.7379C128.429 27.8709 129.075 28.9063 129.908 29.7814C130.741 30.6566 131.742 31.3533 132.851 31.8294C133.961 32.3054 135.155 32.5509 136.361 32.5509C137.568 32.5509 138.762 32.3054 139.871 31.8294C140.98 31.3533 141.982 30.6566 142.813 29.7814C143.646 28.9063 144.293 27.8709 144.715 26.7379C145.136 25.6049 145.324 24.3979 145.267 23.1902Z"
            fill="#1B1B20"/>
        <path
            d="M153.941 23.1898C153.941 19.4547 155.421 15.8725 158.057 13.2313C160.692 10.5902 164.267 9.10645 167.995 9.10645C171.721 9.10645 175.296 10.5902 177.931 13.2313C180.567 15.8725 182.048 19.4547 182.048 23.1898C182.048 26.925 180.567 30.5071 177.931 33.1483C175.296 35.7895 171.721 37.2732 167.995 37.2732C164.267 37.2732 160.692 35.7895 158.057 33.1483C155.421 30.5071 153.941 26.925 153.941 23.1898ZM177.032 23.1898C177.032 20.7933 176.082 18.4949 174.391 16.8003C172.7 15.1057 170.406 14.1536 168.015 14.1536C165.623 14.1536 163.33 15.1057 161.639 16.8003C159.948 18.4949 158.997 20.7933 158.997 23.1898C158.997 25.5864 159.948 27.8848 161.639 29.5793C163.33 31.2739 165.623 32.226 168.015 32.226C170.406 32.226 172.7 31.2739 174.391 29.5793C176.082 27.8848 177.032 25.5864 177.032 23.1898Z"
            fill="#1B1B20"/>
        <path
            d="M22.4977 44.3964C18.1236 44.3964 13.8478 43.0965 10.2108 40.6611C6.57385 38.2259 3.73921 34.7645 2.06531 30.7147C0.391418 26.6649 -0.046549 22.2088 0.806796 17.9095C1.66014 13.6103 3.76647 9.66126 6.85943 6.56172C9.95238 3.46216 13.8931 1.35134 18.1831 0.496178C22.4732 -0.358986 26.9199 0.0799152 30.961 1.75739C35.0021 3.43484 38.4562 6.27553 40.8863 9.92022C43.3165 13.5649 44.6135 17.8499 44.6135 22.2334C44.6081 28.1096 42.2763 33.7438 38.13 37.8989C33.9836 42.0542 28.3616 44.3909 22.4977 44.3964ZM22.4977 4.44594C17.7902 4.44594 13.2756 6.31996 9.94686 9.65574C6.61818 12.9915 4.74815 17.5158 4.74815 22.2334C4.74815 26.9508 6.61818 31.4751 9.94686 34.8109C13.2756 38.1467 17.7902 40.0206 22.4977 40.0206C27.5545 40.0206 24.955 32.3074 28.8948 28.5219C32.8347 24.7366 40.2472 26.9753 40.2472 22.2334C40.2418 17.5174 38.3701 12.9963 35.0425 9.66169C31.7151 6.32708 27.2035 4.45132 22.4977 4.44594Z"
            fill="#1B1B20"/>
    </g>
    <defs>
        <clipPath id="clip0_2588_32872">
            <rect width="182.237" height="48" fill="white" transform="translate(0.381836)"/>
        </clipPath>
    </defs>
</svg>
