<svg width="42" height="36" viewBox="0 0 42 36" fill="none" xmlns="http://www.w3.org/2000/svg">
<path d="M29.4414 26.5462C33.9872 26.5462 37.7254 26.2935 38.9403 25.4813C39.5088 25.1013 40.0536 24.0766 39.9958 23.3517C39.9958 18.6609 32.146 18.6609 32.146 18.6609C32.146 18.6609 32.146 18.6609 32.146 18.6609H29.5164C29.4664 18.6609 29.4171 18.6615 29.3672 18.6632C28.623 18.6895 22.5311 18.9667 22.368 21.0125M35.774 8.44433C35.774 10.7967 33.8839 12.7036 31.5523 12.7036C29.2206 12.7036 27.3305 10.7967 27.3305 8.44433C27.3305 6.092 29.2206 4.18506 31.5523 4.18506C33.8839 4.18506 35.774 6.092 35.774 8.44433ZM21.9025 8.7208C21.9025 12.4326 18.92 15.4416 15.2409 15.4416C11.5618 15.4416 8.57935 12.4326 8.57935 8.7208C8.57935 5.009 11.5618 2 15.2409 2C18.92 2 21.9025 5.009 21.9025 8.7208ZM27.4875 30.9894C25.7239 32.1684 21.922 34.0001 15.3232 34.0001C8.72436 34.0001 4.9225 32.1684 3.15888 30.9894C2.33363 30.4377 1.92688 29.4219 2.01081 28.3696C2.10289 27.2151 2.42211 26.0618 2.7904 25.0626C3.50822 23.1151 5.48304 22.052 7.55865 22.052H23.0877C25.1633 22.052 27.1382 23.1151 27.856 25.0626C28.2243 26.0618 28.5435 27.2151 28.6356 28.3696C28.7195 29.4219 28.3127 30.4377 27.4875 30.9894Z" stroke="white" stroke-width="3" stroke-linecap="round" stroke-linejoin="round"/>
</svg>
