<svg width="25" height="24" viewBox="0 0 25 24" fill="none" xmlns="http://www.w3.org/2000/svg">
<path fill-rule="evenodd" clip-rule="evenodd" d="M13.3572 0H11.6429V7.59037L8.79945 0.552698L7.20999 1.19488L10.1271 8.41487L4.62081 2.90862L3.40863 4.12081L8.68612 9.39829L1.84689 6.41017L1.16055 7.98107L8.39726 11.1429H0.5V12.8572H8.39725L1.16055 16.0189L1.84689 17.5898L8.68611 14.6017L3.40863 19.8792L4.62081 21.0913L10.1271 15.5851L7.20999 22.8052L8.79945 23.4473L11.6429 16.4096V24H13.3572V16.4096L16.2006 23.4473L17.79 22.8052L14.873 15.5851L20.3792 21.0913L21.5913 19.8792L16.3138 14.6017L23.1531 17.5898L23.8394 16.0189L16.6028 12.8572H24.5V11.1429H16.6027L23.8394 7.98107L23.1531 6.41017L16.3138 9.39829L21.5913 4.1208L20.3792 2.90862L14.873 8.41486L17.79 1.19488L16.2006 0.552698L13.3572 7.59037V0Z" fill="#595964"/>
</svg>
