<svg width="49" height="48" viewBox="0 0 49 48" fill="none" xmlns="http://www.w3.org/2000/svg">
<path d="M10.7295 32.7976C11.3184 32.215 11.3236 31.2653 10.741 30.6763C10.1583 30.0874 9.20861 30.0823 8.61967 30.6649L10.7295 32.7976ZM5.14502 34.1022C4.55608 34.6848 4.55094 35.6345 5.13355 36.2234C5.71616 36.8124 6.6659 36.8175 7.25484 36.2349L5.14502 34.1022ZM14.1476 36.179C14.7365 35.5963 14.7417 34.6466 14.159 34.0577C13.5764 33.4687 12.6267 33.4636 12.0378 34.0462L14.1476 36.179ZM3.96525 42.0319C3.37631 42.6145 3.37118 43.5642 3.95379 44.1532C4.5364 44.7421 5.48613 44.7473 6.07508 44.1647L3.96525 42.0319ZM17.5657 39.5603C18.1546 38.9777 18.1597 38.0279 17.5771 37.439C16.9945 36.8501 16.0448 36.8449 15.4558 37.4275L17.5657 39.5603ZM11.8196 41.0247C11.2306 41.6073 11.2255 42.557 11.8081 43.146C12.3907 43.7349 13.3405 43.7401 13.9294 43.1575L11.8196 41.0247ZM31.8235 12.2026V10.7026V12.2026ZM46.2392 2.32245L47.6923 1.95033C47.5551 1.41456 47.1342 0.997751 46.5971 0.865781L46.2392 2.32245ZM12.228 28.5897L10.9083 27.8769C10.5917 28.463 10.6996 29.1876 11.1731 29.6561L12.228 28.5897ZM19.7026 35.9839L18.6477 37.0503C19.1136 37.5112 19.8249 37.6163 20.4043 37.3096L19.7026 35.9839ZM16.2624 16.7374C17.0848 16.6381 17.671 15.8908 17.5717 15.0684C17.4723 14.2459 16.725 13.6597 15.9026 13.7591L16.2624 16.7374ZM2.08691 24.7688L0.84621 23.9258C0.468336 24.4819 0.506704 25.2215 0.940092 25.7356C1.37348 26.2497 2.096 26.4125 2.70802 26.1341L2.08691 24.7688ZM9.84699 25.8602C10.6617 26.0104 11.4439 25.4717 11.5941 24.6571C11.7444 23.8424 11.2057 23.0601 10.391 22.9099L9.84699 25.8602ZM34.6782 32.3353C34.7778 31.5129 34.1918 30.7654 33.3694 30.6658C32.547 30.5662 31.7996 31.1521 31.7 31.9746L34.6782 32.3353ZM23.5732 46L22.2108 45.3723C21.9301 45.9817 22.0881 46.7034 22.5978 47.1396C23.1076 47.5759 23.845 47.6206 24.4037 47.2491L23.5732 46ZM25.4355 37.7783C25.2831 36.9641 24.4994 36.4275 23.6851 36.5799C22.8708 36.7322 22.3343 37.5159 22.4866 38.3302L25.4355 37.7783ZM8.61967 30.6649L5.14502 34.1022L7.25484 36.2349L10.7295 32.7976L8.61967 30.6649ZM12.0378 34.0462L3.96525 42.0319L6.07508 44.1647L14.1476 36.179L12.0378 34.0462ZM15.4558 37.4275L11.8196 41.0247L13.9294 43.1575L17.5657 39.5603L15.4558 37.4275ZM31.8235 13.7026C32.4062 13.7026 32.9745 13.8737 33.4565 14.1922L35.1107 11.6896C34.1363 11.0455 32.9923 10.7026 31.8235 10.7026V13.7026ZM33.4565 14.1922C33.9383 14.5107 34.3113 14.9616 34.5309 15.4862L37.2981 14.3275C36.8475 13.2511 36.0854 12.3338 35.1107 11.6896L33.4565 14.1922ZM34.5309 15.4862C34.7505 16.0105 34.8077 16.5865 34.696 17.1421L37.6371 17.7335C37.8671 16.5896 37.7489 15.404 37.2981 14.3275L34.5309 15.4862ZM34.696 17.1421C34.5842 17.6978 34.308 18.2104 33.8997 18.6143L36.0095 20.7471C36.8398 19.9257 37.4071 18.8773 37.6371 17.7335L34.696 17.1421ZM33.8997 18.6143C33.4912 19.0184 32.9688 19.2954 32.3977 19.4078L32.977 22.3513C34.1238 22.1257 35.1795 21.5682 36.0095 20.7471L33.8997 18.6143ZM32.3977 19.4078C31.8265 19.5202 31.2347 19.4624 30.6976 19.2423L29.5601 22.0183C30.6414 22.4613 31.8302 22.577 32.977 22.3513L32.3977 19.4078ZM30.6976 19.2423C30.1607 19.0223 29.7044 18.6508 29.3846 18.1773L26.8986 19.8565C27.5519 20.8237 28.4788 21.5752 29.5601 22.0183L30.6976 19.2423ZM29.3846 18.1773C29.0649 17.704 28.8953 17.1493 28.8953 16.5832H25.8953C25.8953 17.7499 26.2451 18.889 26.8986 19.8565L29.3846 18.1773ZM28.8953 16.5832C28.8953 15.8245 29.1998 15.0936 29.7472 14.5521L27.6374 12.4193C26.5239 13.5208 25.8953 15.0183 25.8953 16.5832H28.8953ZM29.7472 14.5521C30.2951 14.01 31.0417 13.7026 31.8235 13.7026V10.7026C30.2564 10.7026 28.7503 11.3183 27.6374 12.4193L29.7472 14.5521ZM33.8311 5.09948L43.4551 14.62L45.5649 12.4872L35.9409 2.96672L33.8311 5.09948ZM46.5971 0.865781C45.0833 0.493801 40.1764 -0.290136 33.5914 2.86523C27.0199 6.01407 18.9391 13.0083 10.9083 27.8769L13.5478 29.3026C21.3711 14.8183 29.0434 8.37113 34.8877 5.57067C40.7185 2.77673 44.8902 3.53559 45.8813 3.77912L46.5971 0.865781ZM11.1731 29.6561L18.6477 37.0503L20.7575 34.9175L13.283 27.5233L11.1731 29.6561ZM20.4043 37.3096C35.4777 29.3318 42.5447 21.3141 45.7134 14.8003C48.8903 8.26954 48.0678 3.41648 47.6923 1.95033L44.7861 2.69457C45.0248 3.62653 45.8184 7.7264 43.0156 13.488C40.2047 19.2664 33.6963 26.8804 19.0009 34.6581L20.4043 37.3096ZM15.9026 13.7591C12.0134 14.2289 6.06921 16.2387 0.84621 23.9258L3.32762 25.6118C8.01141 18.7183 13.1376 17.1149 16.2624 16.7374L15.9026 13.7591ZM2.08691 24.7688C2.70802 26.1341 2.70741 26.1344 2.70681 26.1347C2.70663 26.1348 2.70604 26.135 2.70567 26.1352C2.70493 26.1355 2.70424 26.1358 2.70358 26.1361C2.70228 26.1367 2.70114 26.1372 2.70018 26.1377C2.69825 26.1385 2.69701 26.1391 2.69646 26.1393C2.69534 26.1398 2.69696 26.1391 2.7013 26.1373C2.70997 26.1336 2.72947 26.1256 2.75965 26.114C2.82001 26.0908 2.92298 26.0535 3.0672 26.0088C3.3556 25.9193 3.80889 25.8001 4.41639 25.7052C5.62896 25.5157 7.46633 25.4211 9.84699 25.8602L10.391 22.9099C7.65669 22.4057 5.47801 22.5029 3.95328 22.7411C3.19213 22.8601 2.59646 23.0137 2.17807 23.1435C1.96888 23.2085 1.804 23.2674 1.68485 23.3131C1.62527 23.336 1.57711 23.3556 1.54055 23.3709C1.52227 23.3786 1.50688 23.3852 1.49442 23.3906C1.48819 23.3934 1.48269 23.3958 1.47792 23.3979C1.47553 23.399 1.47333 23.4 1.47131 23.4009C1.4703 23.4014 1.46934 23.4018 1.46842 23.4022C1.46796 23.4024 1.46731 23.4027 1.46708 23.4028C1.46644 23.4031 1.46581 23.4034 2.08691 24.7688ZM31.7 31.9746C31.3278 35.0476 29.7153 40.1147 22.7426 44.7509L24.4037 47.2491C32.17 42.0851 34.21 36.2007 34.6782 32.3353L31.7 31.9746ZM23.5732 46C24.9355 46.6277 24.9358 46.6271 24.9361 46.6264C24.9362 46.6262 24.9365 46.6255 24.9367 46.6251C24.9371 46.6242 24.9376 46.6232 24.938 46.6222C24.939 46.6202 24.94 46.618 24.941 46.6156C24.9432 46.6108 24.9457 46.6053 24.9484 46.5991C24.9539 46.5867 24.9606 46.5713 24.9684 46.5531C24.9838 46.5167 25.0036 46.4688 25.0266 46.4095C25.0727 46.291 25.1321 46.1271 25.1975 45.9192C25.3284 45.5035 25.4832 44.9121 25.6031 44.1569C25.8433 42.6439 25.9418 40.4842 25.4355 37.7783L22.4866 38.3302C22.9257 40.6764 22.8303 42.4895 22.6402 43.6864C22.545 44.2861 22.4255 44.7338 22.3359 45.0186C22.2911 45.161 22.2538 45.2626 22.2306 45.3221C22.2191 45.3518 22.2111 45.371 22.2075 45.3794C22.2057 45.3836 22.205 45.3852 22.2055 45.384C22.2058 45.3834 22.2064 45.3821 22.2072 45.3802C22.2077 45.3792 22.2082 45.3781 22.2088 45.3767C22.2091 45.3761 22.2094 45.3754 22.2098 45.3746C22.2099 45.3743 22.2102 45.3737 22.2103 45.3735C22.2106 45.3729 22.2108 45.3723 23.5732 46Z" fill="white"/>
</svg>
